<svg width="121" height="42" viewBox="0 0 121 42" fill="none" xmlns="http://www.w3.org/2000/svg">
<rect opacity="0.12" width="121" height="42" rx="4" fill="white"/>
<path d="M27.8694 21.2315C27.8428 18.3259 30.2851 16.9123 30.3968 16.8465C29.0136 14.8604 26.8697 14.589 26.1164 14.5674C24.3158 14.3807 22.5692 15.6285 21.652 15.6285C20.7165 15.6285 19.304 14.5854 17.7817 14.616C15.8228 14.6458 13.9902 15.7628 12.9851 17.4974C10.9108 21.0341 12.4578 26.2315 14.4451 29.0902C15.4392 30.4903 16.6009 32.0536 18.1213 31.9986C19.6088 31.9382 20.1645 31.0646 21.9596 31.0646C23.7382 31.0646 24.26 31.9986 25.8106 31.9634C27.4071 31.9382 28.4122 30.557 29.3715 29.1443C30.5203 27.5396 30.9817 25.9592 31 25.8781C30.9625 25.8654 27.8996 24.7142 27.8694 21.2315Z" fill="white"/>
<path d="M24.9397 12.6864C25.7397 11.701 26.2871 10.3604 26.1352 9C24.9772 9.05049 23.529 9.78885 22.6951 10.7526C21.9573 11.6018 21.2982 12.9938 21.4685 14.3028C22.7693 14.3984 24.1048 13.6564 24.9397 12.6864Z" fill="white"/>
<path d="M47.1436 30.4065H45.0933L43.9701 26.8147H40.0661L38.9962 30.4065H37L40.8679 18.1782H43.2568L47.1436 30.4065ZM43.6315 25.3077L42.6158 22.1147C42.5084 21.7885 42.307 21.0203 42.01 19.8111H41.9739C41.8556 20.3311 41.6651 21.0993 41.4033 22.1147L40.4056 25.3077H43.6315Z" fill="white"/>
<path d="M57.0909 25.8905C57.0909 27.3901 56.6927 28.5754 55.8964 29.4456C55.1832 30.2202 54.2974 30.6071 53.2402 30.6071C52.099 30.6071 51.2792 30.1899 50.7799 29.3556H50.7438V34.0004H48.8189V24.4929C48.8189 23.5501 48.7945 22.5826 48.7476 21.5902H50.4404L50.5479 22.9878H50.584C51.2259 21.9348 52.2001 21.4092 53.5074 21.4092C54.5295 21.4092 55.3827 21.8199 56.0652 22.6423C56.7496 23.4656 57.0909 24.548 57.0909 25.8905ZM55.1299 25.9622C55.1299 25.1039 54.9403 24.3964 54.5593 23.8396C54.1431 23.2589 53.5842 22.9685 52.8836 22.9685C52.4087 22.9685 51.9771 23.1302 51.5916 23.4491C51.2051 23.7707 50.9523 24.1906 50.8341 24.7107C50.7745 24.9533 50.7447 25.1517 50.7447 25.3079V26.7781C50.7447 27.4195 50.9379 27.9607 51.3243 28.4027C51.7107 28.8447 52.2127 29.0652 52.8303 29.0652C53.5553 29.0652 54.1196 28.7803 54.5232 28.2125C54.9276 27.6437 55.1299 26.8939 55.1299 25.9622Z" fill="white"/>
<path d="M67.0544 25.8905C67.0544 27.3901 66.6562 28.5754 65.859 29.4456C65.1466 30.2202 64.2609 30.6071 63.2036 30.6071C62.0624 30.6071 61.2426 30.1899 60.7443 29.3556H60.7081V34.0004H58.7832V24.4929C58.7832 23.5501 58.7589 22.5826 58.7119 21.5902H60.4048L60.5122 22.9878H60.5483C61.1894 21.9348 62.1636 21.4092 63.4718 21.4092C64.4929 21.4092 65.3461 21.8199 66.0305 22.6423C66.7122 23.4656 67.0544 24.548 67.0544 25.8905ZM65.0933 25.9622C65.0933 25.1039 64.9028 24.3964 64.5218 23.8396C64.1056 23.2589 63.5485 22.9685 62.847 22.9685C62.3712 22.9685 61.9405 23.1302 61.5541 23.4491C61.1677 23.7707 60.9158 24.1906 60.7975 24.7107C60.7388 24.9533 60.7081 25.1517 60.7081 25.3079V26.7781C60.7081 27.4195 60.9014 27.9607 61.286 28.4027C61.6724 28.8437 62.1744 29.0652 62.7938 29.0652C63.5188 29.0652 64.083 28.7803 64.4866 28.2125C64.8911 27.6437 65.0933 26.8939 65.0933 25.9622Z" fill="white"/>
<path d="M78.1967 26.9783C78.1967 28.0184 77.8419 28.8647 77.1295 29.518C76.3467 30.232 75.257 30.5885 73.8566 30.5885C72.5638 30.5885 71.5273 30.3349 70.7427 29.8268L71.1887 28.1939C72.0338 28.714 72.961 28.975 73.9713 28.975C74.6963 28.975 75.2606 28.8077 75.666 28.4751C76.0696 28.1425 76.2709 27.6959 76.2709 27.1391C76.2709 26.6429 76.1048 26.2248 75.7716 25.8857C75.4403 25.5467 74.8868 25.2315 74.114 24.9402C72.0103 24.1417 70.9594 22.972 70.9594 21.4338C70.9594 20.4286 71.3277 19.6043 72.0654 18.963C72.8003 18.3207 73.7808 18 75.0069 18C76.1003 18 77.0085 18.1939 77.7335 18.5807L77.2523 20.1777C76.5752 19.8028 75.8095 19.6154 74.9527 19.6154C74.2756 19.6154 73.7465 19.7854 73.3673 20.1235C73.0468 20.4258 72.8861 20.7943 72.8861 21.2307C72.8861 21.7141 73.0694 22.1138 73.4377 22.428C73.7582 22.7184 74.3406 23.0326 75.1857 23.3717C76.2194 23.7953 76.9787 24.2906 77.4672 24.8584C77.9538 25.4245 78.1967 26.1329 78.1967 26.9783Z" fill="white"/>
<path d="M84.5605 23.0608H82.4388V27.3418C82.4388 28.4306 82.8126 28.9746 83.5619 28.9746C83.9059 28.9746 84.1912 28.9443 84.4169 28.8836L84.4702 30.3713C84.091 30.5155 83.5917 30.5881 82.9733 30.5881C82.2131 30.5881 81.619 30.352 81.1901 29.8806C80.7631 29.4083 80.5482 28.6162 80.5482 27.5035V23.0589H79.2842V21.5887H80.5482V19.9743L82.4388 19.3936V21.5887H84.5605V23.0608Z" fill="white"/>
<path d="M94.1344 25.9264C94.1344 27.2817 93.7534 28.3945 92.9932 29.2646C92.196 30.1605 91.1378 30.6071 89.8188 30.6071C88.5475 30.6071 87.5354 30.178 86.7806 29.3198C86.0258 28.4616 85.6484 27.3782 85.6484 26.0725C85.6484 24.7061 86.0367 23.587 86.8158 22.7168C87.5932 21.8457 88.6423 21.4102 89.9614 21.4102C91.2326 21.4102 92.2556 21.8393 93.0275 22.6984C93.7661 23.5318 94.1344 24.6078 94.1344 25.9264ZM92.1373 25.9898C92.1373 25.1766 91.9667 24.4792 91.6209 23.8975C91.2173 23.1937 90.6404 22.8427 89.8928 22.8427C89.119 22.8427 88.5313 23.1946 88.1277 23.8975C87.7819 24.4801 87.6113 25.1885 87.6113 26.0266C87.6113 26.8397 87.7819 27.5372 88.1277 28.1179C88.5439 28.8217 89.1254 29.1728 89.8756 29.1728C90.6106 29.1728 91.1875 28.8144 91.6037 28.0995C91.9585 27.5068 92.1373 26.8021 92.1373 25.9898Z" fill="white"/>
<path d="M100.39 23.3131C100.2 23.2772 99.9965 23.2589 99.7834 23.2589C99.1063 23.2589 98.5826 23.5189 98.2143 24.0399C97.8938 24.4993 97.7331 25.0801 97.7331 25.7812V30.4077H95.8091L95.8271 24.367C95.8271 23.3507 95.8027 22.4254 95.7549 21.5911H97.4315L97.5019 23.2782H97.5552C97.7583 22.6984 98.0788 22.2316 98.5176 21.8815C98.9465 21.5663 99.4097 21.4092 99.9089 21.4092C100.087 21.4092 100.248 21.422 100.39 21.445V23.3131Z" fill="white"/>
<path d="M109 25.5817C109 25.9327 108.978 26.2286 108.93 26.4702H103.155C103.178 27.3413 103.457 28.0075 103.993 28.4669C104.48 28.8777 105.109 29.0835 105.882 29.0835C106.737 29.0835 107.517 28.9448 108.219 28.6663L108.52 30.0263C107.7 30.3901 106.732 30.5712 105.616 30.5712C104.272 30.5712 103.218 30.1687 102.45 29.3647C101.684 28.5607 101.301 27.481 101.301 26.1266C101.301 24.797 101.657 23.6897 102.372 22.8067C103.119 21.864 104.129 21.3926 105.401 21.3926C106.649 21.3926 107.595 21.864 108.237 22.8067C108.745 23.5556 109 24.4818 109 25.5817ZM107.165 25.0736C107.178 24.4928 107.052 23.9911 106.791 23.5675C106.458 23.0226 105.946 22.7507 105.257 22.7507C104.628 22.7507 104.116 23.0162 103.725 23.5492C103.404 23.9728 103.214 24.4809 103.155 25.0726H107.165V25.0736Z" fill="white"/>
<path d="M37.1579 8.44198C37.3616 8.31804 37.5914 8.21416 37.8498 8.12849C38.1073 8.04283 38.4107 8 38.7597 8C39.3224 8 39.7657 8.13578 40.0905 8.40644C40.4154 8.6771 40.5778 9.04253 40.5778 9.50273C40.5778 9.86817 40.4692 10.1744 40.252 10.4222C40.0349 10.6701 39.7567 10.8351 39.4202 10.9171V10.9435C39.6059 10.9736 39.7818 11.0246 39.9469 11.0984C40.113 11.1722 40.2583 11.2707 40.3822 11.3946C40.5069 11.5185 40.6056 11.6625 40.6783 11.8284C40.7501 11.9933 40.7869 12.1756 40.7869 12.377C40.7869 12.7069 40.7214 12.9839 40.5904 13.2081C40.4593 13.4323 40.2888 13.6145 40.0771 13.7567C39.8662 13.8979 39.6293 14 39.3681 14.0611C39.107 14.1221 38.8459 14.154 38.5847 14.154C38.3057 14.154 38.0302 14.1239 37.7574 14.0656C37.4846 14.0073 37.2324 13.9098 37 13.774L37.2351 13.0404C37.3859 13.117 37.5806 13.1908 37.8184 13.2618C38.0562 13.3329 38.2967 13.3676 38.5408 13.3676C38.941 13.3676 39.2506 13.2764 39.4678 13.0942C39.6849 12.911 39.7944 12.6668 39.7944 12.3606C39.7944 12.1537 39.7504 11.9851 39.6634 11.8521C39.5754 11.719 39.4624 11.6151 39.3233 11.5377C39.1842 11.4611 39.0289 11.4083 38.8575 11.3791C38.6861 11.3499 38.5165 11.3344 38.3487 11.3344H37.9566V10.6081H38.3487C38.5282 10.6081 38.6951 10.5854 38.8495 10.5371C39.0029 10.4906 39.1366 10.4241 39.2497 10.3384C39.3628 10.2527 39.4516 10.1507 39.5153 10.0331C39.5781 9.91555 39.6104 9.7825 39.6104 9.63487C39.6104 9.36968 39.5171 9.16191 39.3314 9.01154C39.1456 8.86118 38.8961 8.78554 38.583 8.78554C38.3685 8.78554 38.1531 8.82108 37.9386 8.89125C37.7242 8.96233 37.5321 9.03888 37.3634 9.1209L37.1579 8.44198Z" fill="white"/>
<path d="M44.6329 14.0552L44.5638 13.5604H44.5377C44.2542 13.955 43.8423 14.1527 43.3021 14.1527C43.11 14.1527 42.9368 14.1199 42.7798 14.0552C42.6228 13.9905 42.4864 13.9021 42.3706 13.79C42.2539 13.678 42.1651 13.5458 42.1005 13.3918C42.0368 13.2387 42.0054 13.0701 42.0054 12.8879C42.0054 12.352 42.2198 11.9492 42.6497 11.6813C43.0795 11.4134 43.6879 11.2794 44.4776 11.2794V11.2001C44.4776 10.6342 44.1851 10.3517 43.6 10.3517C43.1827 10.3517 42.8148 10.4583 42.4971 10.6697L42.306 10.0428C42.6945 9.79581 43.1782 9.67188 43.757 9.67188C44.8635 9.67188 45.4172 10.2642 45.4172 11.4489V13.0309C45.4172 13.4729 45.4378 13.8146 45.4782 14.0561H44.6329V14.0552ZM44.5027 11.9164C43.9778 11.9164 43.5865 11.9838 43.3299 12.1196C43.0732 12.2554 42.9449 12.4769 42.9449 12.7831C42.9449 13.0072 43.005 13.1749 43.1262 13.287C43.2473 13.3991 43.4008 13.4547 43.5856 13.4547C43.7068 13.4547 43.8216 13.4328 43.932 13.3882C44.0415 13.3444 44.1375 13.2834 44.221 13.2068C44.3053 13.1303 44.3726 13.0373 44.4256 12.928C44.4776 12.8186 44.5027 12.7029 44.5027 12.5789V11.9164Z" fill="white"/>
<path d="M49.9533 9.75928V10.5457H48.1944V14.0551H47.2549V9.75928H49.9533Z" fill="white"/>
<path d="M55.3314 11.8543C55.3314 12.196 55.2847 12.5086 55.1923 12.7911C55.0989 13.0745 54.9706 13.316 54.8046 13.5156C54.6395 13.7161 54.4421 13.8728 54.2132 13.984C53.9835 14.0961 53.7305 14.1526 53.4514 14.1526C52.8941 14.1526 52.4939 13.9494 52.2498 13.5429H52.2319V15.8057H51.2914V11.1736C51.2914 10.9439 51.2887 10.7124 51.2825 10.4792C51.2771 10.2468 51.2681 10.0062 51.2573 9.75832H52.0838L52.1367 10.4391H52.1547C52.4679 9.92691 52.9435 9.66992 53.5824 9.66992C53.831 9.66992 54.0625 9.72278 54.2743 9.82849C54.486 9.93511 54.67 10.0837 54.827 10.275C54.9841 10.4664 55.107 10.696 55.1968 10.9649C55.2865 11.2337 55.3314 11.5299 55.3314 11.8543ZM54.3748 11.8898C54.3748 11.6775 54.3496 11.4816 54.3003 11.3021C54.2509 11.1225 54.1782 10.9694 54.0831 10.8428C53.988 10.7161 53.8713 10.6159 53.7349 10.542C53.5985 10.4682 53.446 10.4318 53.2773 10.4318C53.1445 10.4318 53.0135 10.4618 52.8851 10.5202C52.7568 10.5785 52.6455 10.6587 52.5504 10.7589C52.4544 10.8592 52.3781 10.9804 52.3198 11.1216C52.2615 11.2629 52.2319 11.4132 52.2319 11.5727V12.289C52.2319 12.4476 52.2561 12.5952 52.3063 12.731C52.3557 12.8668 52.4248 12.9843 52.5145 13.0846C52.6043 13.1848 52.712 13.2632 52.8367 13.3188C52.9614 13.3753 53.0987 13.4026 53.2495 13.4026C53.6039 13.4026 53.8794 13.2659 54.0768 12.9916C54.2743 12.7173 54.3748 12.3491 54.3748 11.8898Z" fill="white"/>
<path d="M60.3826 9.75928L59.3111 12.7383C59.0563 13.4455 58.8077 14.0242 58.5672 14.4753C58.3258 14.9264 58.0961 15.2544 57.8754 15.4613C57.5505 15.7556 57.205 15.9361 56.8389 15.9999L56.6128 15.1961C56.8559 15.1314 57.0884 15.0047 57.3091 14.8161C57.529 14.6274 57.7058 14.3923 57.8404 14.1089C57.887 14.015 57.9095 13.9503 57.9095 13.9148C57.9095 13.8793 57.8915 13.8118 57.8574 13.7116L56.3247 9.76019H57.3603L58.1616 12.156C58.2029 12.2681 58.2433 12.3948 58.2837 12.536C58.3249 12.6773 58.368 12.834 58.4147 13.0044H58.4326C58.4613 12.9096 58.4936 12.7912 58.5277 12.6463C58.5627 12.5023 58.6094 12.3355 58.6668 12.1469L59.3811 9.76019H60.3826V9.75928Z" fill="white"/>
<path d="M62.0097 11.5445H62.4441C62.7626 11.5445 63.0103 11.4862 63.1835 11.3677C63.3567 11.2493 63.4446 11.1053 63.4446 10.934C63.4446 10.7572 63.371 10.6159 63.2221 10.5102C63.0749 10.4045 62.8694 10.3507 62.6083 10.3507C62.4396 10.3507 62.27 10.379 62.1004 10.4346C61.929 10.4911 61.771 10.5603 61.6257 10.6423L61.3825 10.0245C61.6257 9.88961 61.868 9.79666 62.1102 9.74654C62.3507 9.69642 62.5921 9.6709 62.8362 9.6709C63.0291 9.6709 63.2221 9.69004 63.4159 9.72831C63.6088 9.76659 63.782 9.83129 63.9328 9.92242C64.0835 10.0135 64.2083 10.1329 64.3025 10.2806C64.3985 10.4282 64.4461 10.6104 64.4461 10.8292C64.4461 10.9649 64.4201 11.0843 64.3671 11.1873C64.316 11.2903 64.246 11.3814 64.1589 11.4607C64.0728 11.54 63.975 11.6056 63.8682 11.6548C63.7614 11.7049 63.651 11.7423 63.5424 11.766V11.7924C63.6806 11.8106 63.8161 11.8462 63.9471 11.899C64.0773 11.9519 64.1939 12.0211 64.2998 12.1068C64.403 12.1925 64.4874 12.2954 64.552 12.4157C64.6148 12.5369 64.6462 12.6736 64.6462 12.8267C64.6462 13.0801 64.587 13.2924 64.464 13.4628C64.3429 13.6341 64.1867 13.769 63.9974 13.8693C63.8098 13.9695 63.6017 14.0415 63.3755 14.0861C63.1494 14.1299 62.9286 14.1527 62.7151 14.1527C62.4539 14.1527 62.1946 14.1244 61.9406 14.0688C61.6849 14.0123 61.4552 13.9258 61.2515 13.8082L61.4964 13.1803C61.6472 13.2632 61.8186 13.3325 62.0133 13.3881C62.2081 13.4437 62.4064 13.4719 62.6092 13.4719C62.9277 13.4719 63.1736 13.4091 63.345 13.2824C63.5146 13.1557 63.6008 12.9981 63.6008 12.8094C63.6008 12.6855 63.5729 12.5816 63.5146 12.4959C63.4563 12.4103 63.3746 12.341 63.2714 12.2882C63.1664 12.2353 63.0453 12.1979 62.9053 12.1779C62.7671 12.1569 62.6146 12.1469 62.453 12.1469H62.0097V11.5445Z" fill="white"/>
<path d="M67.0327 9.75963V11.2797C67.0327 11.6278 67.0273 11.9404 67.0147 12.2165C67.0022 12.4935 66.9887 12.7852 66.9708 13.0913L66.9887 13.1087C67.0991 12.8845 67.2077 12.6658 67.3145 12.4498C67.423 12.2347 67.5316 12.0151 67.642 11.7909L68.6865 9.75781H69.9043V14.0537H69.0159V12.5336C69.0159 12.2156 69.0248 11.8975 69.0383 11.5795C69.0527 11.2605 69.0679 10.9398 69.0859 10.6153H69.0419C68.9441 10.8805 68.8454 11.1102 68.7458 11.3052C68.648 11.4993 68.5492 11.6998 68.4514 11.9067C68.2711 12.2602 68.0925 12.6138 67.9148 12.9674C67.738 13.321 67.5505 13.6837 67.3539 14.0546H66.1362V9.75963H67.0327Z" fill="white"/>
<path d="M74.8662 9.75928V10.5457H73.5784V14.0551H72.6542V10.5457H71.3745V9.75928H74.8662Z" fill="white"/>
<path d="M79.6618 11.7044C79.6618 11.7864 79.6582 11.8648 79.6528 11.9386C79.6475 12.0124 79.6385 12.0789 79.6268 12.1373H76.8064C76.819 12.5437 76.9446 12.8581 77.1851 13.0786C77.4256 13.2992 77.7441 13.4104 78.1381 13.4104C78.55 13.4104 78.9305 13.3429 79.2786 13.2071L79.4258 13.8706C79.0247 14.0474 78.5527 14.1357 78.0062 14.1357C77.6768 14.1357 77.3807 14.0838 77.1196 13.9808C76.8584 13.8778 76.6377 13.732 76.4573 13.5434C76.2788 13.3548 76.1397 13.1278 76.0436 12.8627C75.9494 12.5975 75.9019 12.3004 75.9019 11.9705C75.9019 11.6406 75.9494 11.3353 76.0436 11.0556C76.1397 10.7758 76.2752 10.5325 76.4484 10.3265C76.6233 10.1196 76.8342 9.95835 77.0792 9.83988C77.326 9.72232 77.6015 9.66309 77.903 9.66309C78.1695 9.66309 78.4109 9.71138 78.6307 9.80889C78.8479 9.90549 79.0337 10.044 79.1862 10.2244C79.3406 10.404 79.4581 10.62 79.5389 10.8696C79.6214 11.1193 79.6618 11.3982 79.6618 11.7044ZM78.7645 11.4574C78.7645 11.1212 78.6855 10.8487 78.5258 10.64C78.366 10.4313 78.1354 10.3256 77.8339 10.3256C77.5602 10.3256 77.3296 10.4313 77.1384 10.6436C76.9473 10.856 76.8369 11.1266 76.8073 11.4574H78.7645Z" fill="white"/>
<path d="M83.4487 9.79429C83.6174 9.76513 83.831 9.74143 84.0921 9.72321C84.3533 9.70498 84.6198 9.69678 84.8935 9.69678C85.0667 9.69678 85.2632 9.70771 85.4804 9.72776C85.6975 9.74781 85.9066 9.7952 86.1022 9.86901C86.3006 9.94283 86.4648 10.0531 86.5985 10.2007C86.7322 10.3484 86.8004 10.5479 86.8004 10.8013C86.8004 10.9316 86.7762 11.0482 86.7304 11.1503C86.6828 11.2533 86.6218 11.3435 86.5428 11.42C86.4639 11.4966 86.3741 11.5604 86.2727 11.6096C86.1713 11.6597 86.0663 11.6971 85.9551 11.7199L85.964 11.7463C86.2709 11.7991 86.5213 11.9112 86.7124 12.0826C86.9036 12.2539 86.9996 12.489 86.9996 12.7897C86.9996 13.0905 86.917 13.3292 86.7564 13.506C86.5931 13.6828 86.3939 13.8159 86.1552 13.9043C85.9165 13.9926 85.6661 14.0491 85.4014 14.0728C85.1385 14.0956 84.9016 14.1084 84.6934 14.1084C84.4601 14.1084 84.2321 14.1029 84.0096 14.0902C83.7852 14.0783 83.5995 14.0665 83.4487 14.0546V9.79429ZM84.3533 11.5094H84.8316C84.9769 11.5094 85.1151 11.4993 85.2453 11.4784C85.3763 11.4583 85.4902 11.4255 85.5889 11.3818C85.6885 11.3371 85.7639 11.2788 85.8205 11.205C85.8752 11.1312 85.903 11.0419 85.903 10.9352C85.903 10.7411 85.824 10.5981 85.6625 10.5069C85.5028 10.4158 85.2524 10.3702 84.9105 10.3702C84.8127 10.3702 84.7266 10.373 84.653 10.3793C84.5812 10.3848 84.4816 10.3939 84.3533 10.4058V11.5094ZM84.3533 13.4094C84.469 13.4213 84.5668 13.4295 84.644 13.4358C84.723 13.4422 84.8136 13.445 84.9195 13.445C85.0478 13.445 85.1771 13.4368 85.3108 13.4185C85.4436 13.4012 85.5665 13.3675 85.6769 13.3174C85.7873 13.2682 85.8752 13.2007 85.9416 13.1151C86.008 13.0303 86.043 12.9173 86.043 12.777C86.043 12.5309 85.9344 12.3614 85.7209 12.2676C85.5055 12.1737 85.2165 12.1272 84.8495 12.1272H84.3533V13.4094Z" fill="white"/>
</svg>
