<svg width="97" height="26" viewBox="0 0 97 26" fill="none" xmlns="http://www.w3.org/2000/svg">
<path d="M15.8694 13.2315C15.8428 10.3259 18.2851 8.91226 18.3968 8.84645C17.0136 6.86036 14.8697 6.589 14.1164 6.56737C12.3158 6.38075 10.5692 7.62848 9.652 7.62848C8.71647 7.62848 7.30401 6.5854 5.78171 6.61605C3.82277 6.6458 1.99015 7.7628 0.985051 9.49736C-1.08923 13.0341 0.457785 18.2315 2.4451 21.0902C3.43922 22.4903 4.60086 24.0536 6.12133 23.9986C7.60884 23.9382 8.16448 23.0646 9.95957 23.0646C11.7382 23.0646 12.26 23.9986 13.8106 23.9634C15.4071 23.9382 16.4122 22.557 17.3715 21.1443C18.5203 19.5396 18.9817 17.9592 19 17.8781C18.9625 17.8654 15.8996 16.7142 15.8694 13.2315Z" fill="white"/>
<path d="M12.9399 4.68639C13.74 3.70101 14.2874 2.36042 14.1354 1C12.9774 1.05049 11.5293 1.78885 10.6954 2.75259C9.95756 3.60184 9.29848 4.99381 9.46874 6.30285C10.7695 6.39841 12.1051 5.65644 12.9399 4.68639Z" fill="white"/>
<path d="M35.1436 22.4065H33.0933L31.9701 18.8147H28.0661L26.9962 22.4065H25L28.8679 10.1782H31.2568L35.1436 22.4065ZM31.6315 17.3077L30.6158 14.1147C30.5084 13.7885 30.307 13.0203 30.01 11.8111H29.9739C29.8556 12.3311 29.6651 13.0993 29.4033 14.1147L28.4056 17.3077H31.6315Z" fill="white"/>
<path d="M45.0909 17.8905C45.0909 19.3901 44.6927 20.5754 43.8964 21.4456C43.1832 22.2202 42.2974 22.6071 41.2402 22.6071C40.099 22.6071 39.2792 22.1899 38.7799 21.3556H38.7438V26.0004H36.8189V16.4929C36.8189 15.5501 36.7945 14.5826 36.7476 13.5902H38.4404L38.5479 14.9878H38.584C39.2259 13.9348 40.2001 13.4092 41.5074 13.4092C42.5295 13.4092 43.3827 13.8199 44.0652 14.6423C44.7496 15.4656 45.0909 16.548 45.0909 17.8905ZM43.1299 17.9622C43.1299 17.1039 42.9403 16.3964 42.5593 15.8396C42.1431 15.2589 41.5842 14.9685 40.8836 14.9685C40.4087 14.9685 39.9771 15.1302 39.5916 15.4491C39.2051 15.7707 38.9523 16.1906 38.8341 16.7107C38.7745 16.9533 38.7447 17.1517 38.7447 17.3079V18.7781C38.7447 19.4195 38.9379 19.9607 39.3243 20.4027C39.7107 20.8447 40.2127 21.0652 40.8303 21.0652C41.5553 21.0652 42.1196 20.7803 42.5232 20.2125C42.9276 19.6437 43.1299 18.8939 43.1299 17.9622Z" fill="white"/>
<path d="M55.0544 17.8905C55.0544 19.3901 54.6562 20.5754 53.859 21.4456C53.1466 22.2202 52.2609 22.6071 51.2036 22.6071C50.0624 22.6071 49.2426 22.1899 48.7443 21.3556H48.7081V26.0004H46.7832V16.4929C46.7832 15.5501 46.7589 14.5826 46.7119 13.5902H48.4048L48.5122 14.9878H48.5483C49.1894 13.9348 50.1636 13.4092 51.4718 13.4092C52.4929 13.4092 53.3461 13.8199 54.0305 14.6423C54.7122 15.4656 55.0544 16.548 55.0544 17.8905ZM53.0933 17.9622C53.0933 17.1039 52.9028 16.3964 52.5218 15.8396C52.1056 15.2589 51.5485 14.9685 50.847 14.9685C50.3712 14.9685 49.9405 15.1302 49.5541 15.4491C49.1677 15.7707 48.9158 16.1906 48.7975 16.7107C48.7388 16.9533 48.7081 17.1517 48.7081 17.3079V18.7781C48.7081 19.4195 48.9014 19.9607 49.286 20.4027C49.6724 20.8437 50.1744 21.0652 50.7938 21.0652C51.5188 21.0652 52.083 20.7803 52.4866 20.2125C52.8911 19.6437 53.0933 18.8939 53.0933 17.9622Z" fill="white"/>
<path d="M66.1967 18.9783C66.1967 20.0184 65.8419 20.8647 65.1295 21.518C64.3467 22.232 63.257 22.5885 61.8566 22.5885C60.5638 22.5885 59.5273 22.3349 58.7427 21.8268L59.1887 20.1939C60.0338 20.714 60.961 20.975 61.9713 20.975C62.6963 20.975 63.2606 20.8077 63.666 20.4751C64.0696 20.1425 64.2709 19.6959 64.2709 19.1391C64.2709 18.6429 64.1048 18.2248 63.7716 17.8857C63.4403 17.5467 62.8868 17.2315 62.114 16.9402C60.0103 16.1417 58.9594 14.972 58.9594 13.4338C58.9594 12.4286 59.3277 11.6043 60.0654 10.963C60.8003 10.3207 61.7808 10 63.0069 10C64.1003 10 65.0085 10.1939 65.7335 10.5807L65.2523 12.1777C64.5752 11.8028 63.8095 11.6154 62.9527 11.6154C62.2756 11.6154 61.7465 11.7854 61.3673 12.1235C61.0468 12.4258 60.8861 12.7943 60.8861 13.2307C60.8861 13.7141 61.0694 14.1138 61.4377 14.428C61.7582 14.7184 62.3406 15.0326 63.1857 15.3717C64.2194 15.7953 64.9787 16.2906 65.4672 16.8584C65.9538 17.4245 66.1967 18.1329 66.1967 18.9783Z" fill="white"/>
<path d="M72.5605 15.0608H70.4388V19.3418C70.4388 20.4306 70.8126 20.9746 71.5619 20.9746C71.9059 20.9746 72.1912 20.9443 72.4169 20.8836L72.4702 22.3713C72.091 22.5155 71.5917 22.5881 70.9733 22.5881C70.2131 22.5881 69.619 22.352 69.1901 21.8806C68.7631 21.4083 68.5482 20.6162 68.5482 19.5035V15.0589H67.2842V13.5887H68.5482V11.9743L70.4388 11.3936V13.5887H72.5605V15.0608Z" fill="white"/>
<path d="M82.1344 17.9264C82.1344 19.2817 81.7534 20.3945 80.9932 21.2646C80.196 22.1605 79.1378 22.6071 77.8188 22.6071C76.5475 22.6071 75.5354 22.178 74.7806 21.3198C74.0258 20.4616 73.6484 19.3782 73.6484 18.0725C73.6484 16.7061 74.0367 15.587 74.8158 14.7168C75.5932 13.8457 76.6423 13.4102 77.9614 13.4102C79.2326 13.4102 80.2556 13.8393 81.0275 14.6984C81.7661 15.5318 82.1344 16.6078 82.1344 17.9264ZM80.1373 17.9898C80.1373 17.1766 79.9667 16.4792 79.6209 15.8975C79.2173 15.1937 78.6404 14.8427 77.8928 14.8427C77.119 14.8427 76.5313 15.1946 76.1277 15.8975C75.7819 16.4801 75.6113 17.1885 75.6113 18.0266C75.6113 18.8397 75.7819 19.5372 76.1277 20.1179C76.5439 20.8217 77.1254 21.1728 77.8756 21.1728C78.6106 21.1728 79.1875 20.8144 79.6037 20.0995C79.9585 19.5068 80.1373 18.8021 80.1373 17.9898Z" fill="white"/>
<path d="M88.3902 15.3131C88.1997 15.2772 87.9965 15.2589 87.7834 15.2589C87.1063 15.2589 86.5826 15.5189 86.2143 16.0399C85.8938 16.4993 85.7331 17.0801 85.7331 17.7812V22.4077H83.8091L83.8271 16.367C83.8271 15.3507 83.8027 14.4254 83.7549 13.5911H85.4315L85.5019 15.2782H85.5552C85.7583 14.6984 86.0788 14.2316 86.5176 13.8815C86.9465 13.5663 87.4097 13.4092 87.9089 13.4092C88.0868 13.4092 88.2475 13.422 88.3902 13.445V15.3131Z" fill="white"/>
<path d="M97.0004 17.5817C97.0004 17.9327 96.9778 18.2286 96.93 18.4702H91.1553C91.1778 19.3413 91.4568 20.0075 91.9931 20.4669C92.4798 20.8777 93.1091 21.0835 93.8819 21.0835C94.7369 21.0835 95.517 20.9448 96.2185 20.6663L96.5201 22.0263C95.7003 22.3901 94.7324 22.5712 93.6156 22.5712C92.2721 22.5712 91.2176 22.1687 90.4501 21.3647C89.6845 20.5607 89.3008 19.481 89.3008 18.1266C89.3008 16.797 89.6574 15.6897 90.3716 14.8067C91.1191 13.864 92.1294 13.3926 93.4007 13.3926C94.6493 13.3926 95.5946 13.864 96.2366 14.8067C96.7449 15.5556 97.0004 16.4818 97.0004 17.5817ZM95.1649 17.0736C95.1775 16.4928 95.052 15.9911 94.7911 15.5675C94.4579 15.0226 93.946 14.7507 93.2571 14.7507C92.6278 14.7507 92.1159 15.0162 91.725 15.5492C91.4045 15.9728 91.2139 16.4809 91.1553 17.0726H95.1649V17.0736Z" fill="white"/>
<path d="M25.1579 0.44198C25.3616 0.318044 25.5914 0.214155 25.8498 0.128493C26.1073 0.0428309 26.4107 0 26.7597 0C27.3224 0 27.7657 0.135784 28.0905 0.40644C28.4154 0.677096 28.5778 1.04253 28.5778 1.50273C28.5778 1.86817 28.4692 2.17436 28.252 2.42224C28.0349 2.67011 27.7567 2.83506 27.4202 2.91707V2.9435C27.6059 2.97357 27.7818 3.02461 27.9469 3.09842C28.113 3.17224 28.2583 3.27066 28.3822 3.39459C28.5069 3.51853 28.6056 3.66252 28.6783 3.82837C28.7501 3.99332 28.7869 4.17558 28.7869 4.37698C28.7869 4.70687 28.7214 4.9839 28.5904 5.20808C28.4593 5.43226 28.2888 5.61452 28.0771 5.75668C27.8662 5.89793 27.6293 6 27.3681 6.06106C27.107 6.12212 26.8459 6.15401 26.5847 6.15401C26.3057 6.15401 26.0302 6.12394 25.7574 6.06561C25.4846 6.00729 25.2324 5.90978 25 5.774L25.2351 5.0404C25.3859 5.11695 25.5806 5.19077 25.8184 5.26185C26.0562 5.33293 26.2967 5.36756 26.5408 5.36756C26.941 5.36756 27.2506 5.27643 27.4678 5.09417C27.6849 4.911 27.7944 4.66677 27.7944 4.36057C27.7944 4.15371 27.7504 3.98512 27.6634 3.85207C27.5754 3.71902 27.4624 3.61513 27.3233 3.53767C27.1842 3.46112 27.0289 3.40826 26.8575 3.3791C26.6861 3.34994 26.5165 3.33445 26.3487 3.33445H25.9566V2.60814H26.3487C26.5282 2.60814 26.6951 2.58536 26.8495 2.53706C27.0029 2.49058 27.1366 2.42406 27.2497 2.3384C27.3628 2.25273 27.4516 2.15067 27.5153 2.03311C27.5781 1.91555 27.6104 1.7825 27.6104 1.63487C27.6104 1.36968 27.5171 1.16191 27.3314 1.01154C27.1456 0.861178 26.8961 0.785541 26.583 0.785541C26.3685 0.785541 26.1531 0.821081 25.9386 0.891251C25.7242 0.962333 25.5321 1.03888 25.3634 1.1209L25.1579 0.44198Z" fill="white"/>
<path d="M32.6329 6.05523L32.5638 5.56039H32.5377C32.2542 5.95499 31.8423 6.15274 31.3021 6.15274C31.11 6.15274 30.9368 6.11993 30.7798 6.05523C30.6228 5.99053 30.4864 5.90213 30.3706 5.79004C30.2539 5.67795 30.1651 5.54581 30.1005 5.3918C30.0368 5.2387 30.0054 5.07011 30.0054 4.88785C30.0054 4.35201 30.2198 3.94921 30.6497 3.68129C31.0795 3.41337 31.6879 3.27941 32.4776 3.27941V3.20013C32.4776 2.63421 32.1851 2.35171 31.6 2.35171C31.1827 2.35171 30.8148 2.45833 30.4971 2.66975L30.306 2.04277C30.6945 1.79581 31.1782 1.67188 31.757 1.67188C32.8635 1.67188 33.4172 2.26422 33.4172 3.44891V5.03093C33.4172 5.47291 33.4378 5.81465 33.4782 6.05614H32.6329V6.05523ZM32.5027 3.91641C31.9778 3.91641 31.5865 3.98384 31.3299 4.11963C31.0732 4.25541 30.9449 4.47686 30.9449 4.78305C30.9449 5.00723 31.005 5.17491 31.1262 5.287C31.2473 5.39909 31.4008 5.45468 31.5856 5.45468C31.7068 5.45468 31.8216 5.43281 31.932 5.38816C32.0415 5.34442 32.1375 5.28336 32.221 5.20681C32.3053 5.13026 32.3726 5.03731 32.4256 4.92795C32.4776 4.8186 32.5027 4.70286 32.5027 4.57892V3.91641Z" fill="white"/>
<path d="M37.9533 1.75928V2.54573H36.1944V6.05515H35.2549V1.75928H37.9533Z" fill="white"/>
<path d="M43.3314 3.85431C43.3314 4.19605 43.2847 4.50862 43.1923 4.79112C43.0989 5.07454 42.9706 5.31603 42.8046 5.51561C42.6395 5.71609 42.4421 5.87284 42.2132 5.98402C41.9835 6.09611 41.7305 6.15261 41.4514 6.15261C40.8941 6.15261 40.4939 5.94939 40.2498 5.54295H40.2319V7.80571H39.2914V3.17357C39.2914 2.94392 39.2887 2.71245 39.2825 2.47916C39.2771 2.24677 39.2681 2.00619 39.2573 1.75832H40.0838L40.1367 2.43906H40.1547C40.4679 1.92691 40.9435 1.66992 41.5824 1.66992C41.831 1.66992 42.0625 1.72278 42.2743 1.82849C42.486 1.93511 42.67 2.08365 42.827 2.27502C42.9841 2.4664 43.107 2.69605 43.1968 2.96488C43.2865 3.23371 43.3314 3.52989 43.3314 3.85431ZM42.3748 3.88985C42.3748 3.67752 42.3496 3.48159 42.3003 3.30206C42.2509 3.12253 42.1782 2.96944 42.0831 2.84277C41.988 2.71609 41.8713 2.61585 41.7349 2.54204C41.5985 2.46822 41.446 2.43177 41.2773 2.43177C41.1445 2.43177 41.0135 2.46184 40.8851 2.52016C40.7568 2.57849 40.6455 2.65868 40.5504 2.75893C40.4544 2.85917 40.3781 2.98037 40.3198 3.12162C40.2615 3.26287 40.2319 3.41324 40.2319 3.57272V4.289C40.2319 4.44757 40.2561 4.5952 40.3063 4.73098C40.3557 4.86676 40.4248 4.98432 40.5145 5.08456C40.6043 5.18481 40.712 5.26318 40.8367 5.31877C40.9614 5.37527 41.0987 5.40261 41.2495 5.40261C41.6039 5.40261 41.8794 5.26591 42.0768 4.99161C42.2743 4.71731 42.3748 4.34914 42.3748 3.88985Z" fill="white"/>
<path d="M48.3826 1.75928L47.3111 4.73832C47.0563 5.44549 46.8077 6.02416 46.5672 6.47526C46.3258 6.92635 46.0961 7.25442 45.8754 7.46128C45.5505 7.75563 45.205 7.93607 44.8389 7.99986L44.6128 7.1961C44.8559 7.13139 45.0884 7.00472 45.3091 6.81608C45.529 6.62744 45.7058 6.39233 45.8404 6.10891C45.887 6.01505 45.9095 5.95035 45.9095 5.91481C45.9095 5.87927 45.8915 5.81183 45.8574 5.71159L44.3247 1.76019H45.3603L46.1616 4.156C46.2029 4.26809 46.2433 4.39476 46.2837 4.53601C46.3249 4.67726 46.368 4.834 46.4147 5.00442H46.4326C46.4613 4.90964 46.4936 4.79117 46.5277 4.64628C46.5627 4.50229 46.6094 4.33552 46.6668 4.14688L47.3811 1.76019H48.3826V1.75928Z" fill="white"/>
<path d="M50.0097 3.54453H50.4441C50.7626 3.54453 51.0103 3.48621 51.1835 3.36774C51.3567 3.24927 51.4446 3.10529 51.4446 2.93396C51.4446 2.75717 51.371 2.61592 51.2221 2.51021C51.0749 2.4045 50.8694 2.35073 50.6083 2.35073C50.4396 2.35073 50.27 2.37898 50.1004 2.43457C49.929 2.49107 49.771 2.56033 49.6257 2.64234L49.3825 2.02448C49.6257 1.88961 49.868 1.79666 50.1102 1.74654C50.3507 1.69642 50.5921 1.6709 50.8362 1.6709C51.0291 1.6709 51.2221 1.69004 51.4159 1.72831C51.6088 1.76659 51.782 1.83129 51.9328 1.92242C52.0835 2.01355 52.2083 2.13293 52.3025 2.28056C52.3985 2.42819 52.4461 2.61045 52.4461 2.82916C52.4461 2.96494 52.4201 3.08433 52.3671 3.1873C52.316 3.29028 52.246 3.38141 52.1589 3.46069C52.0728 3.53998 51.975 3.60559 51.8682 3.6548C51.7614 3.70492 51.651 3.74228 51.5424 3.76598V3.79241C51.6806 3.81063 51.8161 3.84617 51.9471 3.89903C52.0773 3.95188 52.1939 4.02114 52.2998 4.1068C52.403 4.19247 52.4874 4.29544 52.552 4.41574C52.6148 4.53694 52.6462 4.67363 52.6462 4.82673C52.6462 5.08007 52.587 5.29241 52.464 5.46282C52.3429 5.63414 52.1867 5.76902 51.9974 5.86926C51.8098 5.9695 51.6017 6.0415 51.3755 6.08615C51.1494 6.12989 50.9286 6.15267 50.7151 6.15267C50.4539 6.15267 50.1946 6.12442 49.9406 6.06883C49.6849 6.01233 49.4552 5.92576 49.2515 5.8082L49.4964 5.18032C49.6472 5.26324 49.8186 5.3325 50.0133 5.38809C50.2081 5.44368 50.4064 5.47193 50.6092 5.47193C50.9277 5.47193 51.1736 5.40905 51.345 5.28238C51.5146 5.15571 51.6008 4.99806 51.6008 4.80942C51.6008 4.68548 51.5729 4.58159 51.5146 4.49593C51.4563 4.41027 51.3746 4.34101 51.2714 4.28815C51.1664 4.2353 51.0453 4.19793 50.9053 4.17789C50.7671 4.15693 50.6146 4.1469 50.453 4.1469H50.0097V3.54453Z" fill="white"/>
<path d="M55.0327 1.75963V3.27968C55.0327 3.6278 55.0273 3.94038 55.0147 4.2165C55.0022 4.49354 54.9887 4.78515 54.9708 5.09135L54.9887 5.10866C55.0991 4.88448 55.2077 4.66577 55.3145 4.44979C55.423 4.23473 55.5316 4.0151 55.642 3.79092L56.6865 1.75781H57.9043V6.05368H57.0159V4.53363C57.0159 4.21559 57.0248 3.89755 57.0383 3.5795C57.0527 3.26055 57.0679 2.93977 57.0859 2.61535H57.0419C56.9441 2.88053 56.8454 3.11018 56.7458 3.3052C56.648 3.49931 56.5492 3.69979 56.4514 3.90666C56.2711 4.26024 56.0925 4.61383 55.9148 4.96741C55.738 5.321 55.5505 5.68369 55.3539 6.05459H54.1362V1.75963H55.0327Z" fill="white"/>
<path d="M62.8662 1.75928V2.54573H61.5784V6.05515H60.6542V2.54573H59.3745V1.75928H62.8662Z" fill="white"/>
<path d="M67.6618 3.7044C67.6618 3.78642 67.6582 3.86479 67.6528 3.9386C67.6475 4.01242 67.6385 4.07894 67.6268 4.13727H64.8064C64.819 4.54371 64.9446 4.8581 65.1851 5.07864C65.4256 5.29917 65.7441 5.41035 66.1381 5.41035C66.55 5.41035 66.9305 5.34292 67.2786 5.20713L67.4258 5.87056C67.0247 6.04735 66.5527 6.13575 66.0062 6.13575C65.6768 6.13575 65.3807 6.0838 65.1196 5.98083C64.8584 5.87785 64.6377 5.73204 64.4573 5.5434C64.2788 5.35476 64.1397 5.12785 64.0436 4.86266C63.9494 4.59747 63.9019 4.30039 63.9019 3.9705C63.9019 3.64061 63.9494 3.33532 64.0436 3.05555C64.1397 2.77578 64.2752 2.53247 64.4484 2.32651C64.6233 2.11965 64.8342 1.95835 65.0792 1.83988C65.326 1.72232 65.6015 1.66309 65.903 1.66309C66.1695 1.66309 66.4109 1.71138 66.6307 1.80889C66.8479 1.90549 67.0337 2.04401 67.1862 2.22445C67.3406 2.40397 67.4581 2.61995 67.5389 2.86965C67.6214 3.11934 67.6618 3.3982 67.6618 3.7044ZM66.7645 3.45744C66.7645 3.12117 66.6855 2.84869 66.5258 2.64C66.366 2.43131 66.1354 2.3256 65.8339 2.3256C65.5602 2.3256 65.3296 2.43131 65.1384 2.64365C64.9473 2.85598 64.8369 3.12663 64.8073 3.45744H66.7645Z" fill="white"/>
<path d="M71.4487 1.79429C71.6174 1.76513 71.831 1.74143 72.0921 1.72321C72.3533 1.70498 72.6198 1.69678 72.8935 1.69678C73.0667 1.69678 73.2632 1.70771 73.4804 1.72776C73.6975 1.74781 73.9066 1.7952 74.1022 1.86901C74.3006 1.94283 74.4648 2.0531 74.5985 2.20073C74.7322 2.34836 74.8004 2.54793 74.8004 2.80127C74.8004 2.93159 74.7762 3.04824 74.7304 3.1503C74.6828 3.25328 74.6218 3.3435 74.5428 3.42005C74.4639 3.4966 74.3741 3.56039 74.2727 3.6096C74.1713 3.65972 74.0663 3.69708 73.9551 3.71986L73.964 3.74629C74.2709 3.79915 74.5213 3.91124 74.7124 4.08256C74.9036 4.25389 74.9996 4.489 74.9996 4.78973C74.9996 5.09046 74.917 5.32922 74.7564 5.50601C74.5931 5.68281 74.3939 5.81586 74.1552 5.90425C73.9165 5.99265 73.6661 6.04915 73.4014 6.07284C73.1385 6.09562 72.9016 6.10838 72.6934 6.10838C72.4601 6.10838 72.2321 6.10291 72.0096 6.09016C71.7852 6.07831 71.5995 6.06646 71.4487 6.05462V1.79429ZM72.3533 3.50935H72.8316C72.9769 3.50935 73.1151 3.49933 73.2453 3.47837C73.3763 3.45832 73.4902 3.42551 73.5889 3.38177C73.6885 3.33712 73.7639 3.27879 73.8205 3.20498C73.8752 3.13116 73.903 3.04186 73.903 2.93523C73.903 2.74113 73.824 2.59805 73.6625 2.50692C73.5028 2.41579 73.2524 2.37023 72.9105 2.37023C72.8127 2.37023 72.7266 2.37296 72.653 2.37934C72.5812 2.38481 72.4816 2.39392 72.3533 2.40577V3.50935ZM72.3533 5.40942C72.469 5.42126 72.5668 5.42946 72.644 5.43584C72.723 5.44222 72.8136 5.44496 72.9195 5.44496C73.0478 5.44496 73.1771 5.43675 73.3108 5.41853C73.4436 5.40121 73.5665 5.3675 73.6769 5.31737C73.7873 5.26816 73.8752 5.20073 73.9416 5.11507C74.008 5.03031 74.043 4.91731 74.043 4.77697C74.043 4.53092 73.9344 4.36142 73.7209 4.26756C73.5055 4.17369 73.2165 4.12722 72.8495 4.12722H72.3533V5.40942Z" fill="white"/>
</svg>
