<svg width="30" height="30" viewBox="0 0 30 30" fill="none" xmlns="http://www.w3.org/2000/svg">
<path d="M20.7148 3.14819H9.28966C6.76521 3.14819 4.71484 5.21042 4.71484 7.72301V24.4223C4.71484 26.5556 6.24373 27.4563 8.11633 26.4252L13.9 23.2134C14.5163 22.8697 15.5119 22.8697 16.1163 23.2134L21.9 26.4252C23.7726 27.4682 25.3015 26.5675 25.3015 24.4223V7.72301C25.2897 5.21042 23.2393 3.14819 20.7148 3.14819Z" stroke="#151515" stroke-width="2.5" stroke-linecap="round" stroke-linejoin="round"/>
<path d="M20.7148 3.14819H9.28966C6.76521 3.14819 4.71484 5.21042 4.71484 7.72301V24.4223C4.71484 26.5556 6.24373 27.4563 8.11633 26.4252L13.9 23.2134C14.5163 22.8697 15.5119 22.8697 16.1163 23.2134L21.9 26.4252C23.7726 27.4682 25.3015 26.5675 25.3015 24.4223V7.72301C25.2897 5.21042 23.2393 3.14819 20.7148 3.14819Z" stroke="#151515" stroke-width="2.5" stroke-linecap="round" stroke-linejoin="round"/>
</svg>
