<svg width="130" height="42" viewBox="0 0 130 42" fill="none" xmlns="http://www.w3.org/2000/svg">
<rect opacity="0.12" width="130" height="42" rx="4" fill="white"/>
<path d="M12.4029 10.2949C12.12 10.6291 11.9772 11.0568 12.0036 11.491V30.3885C11.9772 30.8227 12.12 31.2505 12.4029 31.5846L12.4636 31.6444L23.2175 21.0594V20.8116L12.4723 10.2949H12.4029Z" fill="url(#paint0_linear_173_1838)"/>
<path d="M26.7668 24.6316L23.1821 21.1032V20.8555L26.7668 17.3271L26.8449 17.3699L31.0892 19.7449C32.3043 20.4198 32.3043 21.5304 31.0892 22.2139L26.8449 24.5889L26.7668 24.6316Z" fill="url(#paint1_linear_173_1838)"/>
<path d="M26.8884 24.5794L23.2257 20.9741L12.4023 31.6531C12.65 31.8674 12.966 31.9898 13.2956 31.9992C13.6253 32.0086 13.9478 31.9043 14.2077 31.7044L26.8884 24.6135" fill="url(#paint2_linear_173_1838)"/>
<path d="M26.8884 17.3692L14.2077 10.2954C13.9478 10.0955 13.6253 9.99122 13.2956 10.0006C12.966 10.0099 12.65 10.1323 12.4023 10.3467L23.217 20.9915L26.8884 17.3692Z" fill="url(#paint3_linear_173_1838)"/>
<path opacity="0.2" d="M26.7674 24.5024L14.1648 31.5506C13.9142 31.735 13.6098 31.8346 13.2969 31.8346C12.984 31.8346 12.6795 31.735 12.4289 31.5506L12.3682 31.6104L12.4289 31.6702C12.6789 31.8559 12.9836 31.9564 13.2969 31.9564C13.6101 31.9564 13.9148 31.8559 14.1648 31.6702L26.8455 24.5793L26.7674 24.5024Z" fill="#010101"/>
<path opacity="0.12" d="M12.4029 31.4998C12.12 31.1656 11.9772 30.7379 12.0036 30.3037V30.4319C11.9772 30.866 12.12 31.2938 12.4029 31.6279L12.4636 31.5681L12.4029 31.4998Z" fill="#010101"/>
<path opacity="0.12" d="M31.1073 22.0847L26.7676 24.5025L26.8457 24.5794L31.09 22.2043C31.3318 22.0925 31.5394 21.9199 31.6917 21.7039C31.8441 21.4879 31.9359 21.2362 31.9579 20.9741C31.911 21.2106 31.81 21.4335 31.6626 21.6259C31.5152 21.8183 31.3254 21.9752 31.1073 22.0847Z" fill="#010101"/>
<path opacity="0.25" d="M14.2085 10.3981L31.1075 19.8639C31.3288 19.9715 31.5221 20.1275 31.6725 20.32C31.823 20.5125 31.9266 20.7364 31.9754 20.9745C31.9534 20.7125 31.8616 20.4607 31.7092 20.2447C31.5569 20.0288 31.3493 19.8561 31.1075 19.7443L14.2085 10.2955C12.9934 9.62063 12.0039 10.1845 12.0039 11.5514V11.6795C12.0126 10.2955 13.0021 9.72315 14.2085 10.3981Z" fill="white"/>
<path d="M63.6981 22.4494C62.907 22.4531 62.1348 22.6915 61.4788 23.1345C60.8228 23.5774 60.3126 24.2051 60.0124 24.9383C59.7123 25.6714 59.6357 26.4772 59.7923 27.254C59.9489 28.0307 60.3317 28.7435 60.8924 29.3025C61.4531 29.8615 62.1665 30.2416 62.9427 30.3949C63.7189 30.5481 64.523 30.4676 65.2535 30.1635C65.984 29.8594 66.6082 29.3453 67.0474 28.6862C67.4865 28.0271 67.7208 27.2524 67.7208 26.46C67.7285 25.9296 67.6296 25.4031 67.4299 24.9118C67.2302 24.4205 66.9339 23.9744 66.5585 23.6002C66.1832 23.226 65.7365 22.9313 65.2451 22.7336C64.7537 22.5359 64.2276 22.4392 63.6981 22.4494ZM63.6981 28.8947C63.2116 28.9287 62.7261 28.8154 62.3047 28.5695C61.8833 28.3235 61.5456 27.9562 61.3353 27.5154C61.1251 27.0746 61.0521 26.5807 61.1259 26.0978C61.1996 25.6149 61.4167 25.1653 61.7489 24.8077C62.0811 24.45 62.513 24.2007 62.9885 24.0921C63.464 23.9836 63.9611 24.0208 64.4152 24.1991C64.8693 24.3773 65.2594 24.6882 65.5347 25.0914C65.8101 25.4946 65.9579 25.9715 65.9591 26.46C65.9743 26.7695 65.9274 27.079 65.8213 27.3701C65.7152 27.6612 65.552 27.9281 65.3412 28.155C65.1305 28.3819 64.8766 28.5643 64.5944 28.6913C64.3122 28.8184 64.0074 28.8875 63.6981 28.8947ZM54.9272 22.4494C54.1361 22.4531 53.3638 22.6915 52.7079 23.1345C52.0519 23.5774 51.5417 24.2051 51.2415 24.9383C50.9414 25.6714 50.8647 26.4772 51.0214 27.254C51.178 28.0307 51.5608 28.7435 52.1215 29.3025C52.6822 29.8615 53.3956 30.2416 54.1718 30.3949C54.948 30.5481 55.752 30.4676 56.4826 30.1635C57.2131 29.8594 57.8373 29.3453 58.2764 28.6862C58.7156 28.0271 58.9499 27.2524 58.9499 26.46C58.9576 25.9288 58.8584 25.4015 58.6582 24.9095C58.4579 24.4176 58.1607 23.9711 57.7844 23.5968C57.408 23.2224 56.9602 22.9279 56.4677 22.7308C55.9752 22.5336 55.448 22.4379 54.9178 22.4494H54.9272ZM54.9272 28.8947C54.4407 28.9287 53.9552 28.8154 53.5338 28.5695C53.1124 28.3235 52.7747 27.9562 52.5644 27.5154C52.3542 27.0746 52.2812 26.5807 52.355 26.0978C52.4287 25.6149 52.6458 25.1653 52.978 24.8077C53.3101 24.45 53.7421 24.2007 54.2176 24.0921C54.6931 23.9836 55.1902 24.0208 55.6443 24.1991C56.0984 24.3773 56.4885 24.6882 56.7638 25.0914C57.0391 25.4946 57.187 25.9715 57.1882 26.46C57.2034 26.7703 57.1563 27.0805 57.0496 27.3723C56.9429 27.664 56.7788 27.9313 56.567 28.1583C56.3553 28.3854 56.1002 28.5675 55.8169 28.694C55.5336 28.8205 55.2279 28.8887 54.9178 28.8947H54.9272ZM44.4888 23.6762V25.3748H48.5586C48.4948 26.1748 48.1628 26.9298 47.6165 27.5169C47.2093 27.9324 46.7198 28.2578 46.1795 28.4723C45.6392 28.6869 45.0601 28.7857 44.4794 28.7626C43.28 28.7626 42.1298 28.2853 41.2818 27.4359C40.4337 26.5864 39.9573 25.4343 39.9573 24.233C39.9573 23.0316 40.4337 21.8795 41.2818 21.03C42.1298 20.1805 43.28 19.7033 44.4794 19.7033C45.6201 19.6896 46.7203 20.127 47.5412 20.9207L48.7376 19.7222C48.1764 19.1655 47.5098 18.7267 46.7769 18.4318C46.044 18.1369 45.2596 17.9917 44.4699 18.0047C43.6324 17.9721 42.7969 18.1091 42.0135 18.4076C41.2301 18.7062 40.515 19.16 39.9109 19.742C39.3068 20.324 38.8262 21.0222 38.498 21.7947C38.1697 22.5672 38.0005 23.3981 38.0005 24.2376C38.0005 25.0772 38.1697 25.9081 38.498 26.6806C38.8262 27.4531 39.3068 28.1513 39.9109 28.7333C40.515 29.3153 41.2301 29.7692 42.0135 30.0677C42.7969 30.3662 43.6324 30.5033 44.4699 30.4706C45.2763 30.5071 46.0811 30.3702 46.8303 30.069C47.5794 29.7679 48.2555 29.3096 48.813 28.7248C49.8 27.6386 50.327 26.2106 50.2827 24.7425C50.2857 24.3849 50.2541 24.0277 50.1885 23.6762H44.4888ZM87.1751 24.9973C86.9294 24.2733 86.47 23.641 85.8576 23.1844C85.2453 22.7277 84.5088 22.4681 83.7459 22.44C83.2306 22.4389 82.7205 22.5438 82.2472 22.7481C81.774 22.9524 81.3476 23.2517 80.9944 23.6276C80.6412 24.0035 80.3687 24.448 80.1938 24.9335C80.0189 25.4191 79.9453 25.9354 79.9775 26.4506C79.9661 26.978 80.0608 27.5023 80.2562 27.9922C80.4516 28.4821 80.7436 28.9276 81.1147 29.3019C81.4857 29.6763 81.9284 29.9719 82.4161 30.1711C82.9038 30.3702 83.4265 30.4689 83.9531 30.4612C84.6121 30.4647 85.2617 30.3045 85.8438 29.9949C86.4258 29.6853 86.9221 29.2359 87.2882 28.6871L85.9221 27.7434C85.7183 28.0838 85.4296 28.3655 85.0845 28.5607C84.7393 28.7559 84.3495 28.8579 83.9531 28.8569C83.5451 28.8725 83.1418 28.7647 82.7956 28.5476C82.4495 28.3305 82.1766 28.0141 82.0124 27.6396L87.3729 25.422L87.1751 24.9973ZM81.711 26.3373C81.6919 26.0454 81.7311 25.7527 81.8264 25.4762C81.9217 25.1997 82.0711 24.945 82.2658 24.7271C82.4606 24.5091 82.6968 24.3323 82.9607 24.2069C83.2245 24.0816 83.5107 24.0102 83.8024 23.997C84.1063 23.977 84.4094 24.0468 84.674 24.1978C84.9386 24.3488 85.1532 24.5743 85.291 24.8463L81.711 26.3373ZM77.3585 30.2252H79.1202V18.4388H77.3585V30.2252ZM74.4757 23.3365H74.4191C74.1536 23.0391 73.8283 22.8013 73.4647 22.6387C73.101 22.4761 72.7071 22.3923 72.3088 22.3928C71.2793 22.4428 70.3084 22.8877 69.5975 23.6352C68.8865 24.3828 68.4899 25.3756 68.4899 26.4081C68.4899 27.4406 68.8865 28.4335 69.5975 29.181C70.3084 29.9285 71.2793 30.3734 72.3088 30.4234C72.7081 30.4302 73.1039 30.3491 73.4685 30.1861C73.8331 30.0231 74.1576 29.782 74.4191 29.4798H74.4757V30.0554C74.4757 31.5936 73.6561 32.4146 72.3371 32.4146C71.8979 32.4043 71.4716 32.2633 71.1125 32.0095C70.7535 31.7558 70.478 31.4007 70.321 30.9896L68.7854 31.6313C69.0745 32.3357 69.567 32.9374 70.1998 33.3594C70.8326 33.7814 71.5769 34.0045 72.3371 33.9999C74.4003 33.9999 76.1055 32.7826 76.1055 29.8195V22.6098H74.438L74.4757 23.3365ZM72.4596 28.8852C71.8519 28.8316 71.2863 28.5519 70.8743 28.1012C70.4623 27.6505 70.2337 27.0616 70.2337 26.4506C70.2337 25.8395 70.4623 25.2506 70.8743 24.7999C71.2863 24.3493 71.8519 24.0695 72.4596 24.0159C73.0521 24.0899 73.5972 24.3782 73.9925 24.8266C74.3877 25.2749 74.6058 25.8524 74.6058 26.4506C74.6058 27.0487 74.3877 27.6262 73.9925 28.0745C73.5972 28.5229 73.0521 28.8112 72.4596 28.8852ZM95.4185 18.4388H91.2073V30.2347H92.969V25.7617H95.4279C95.93 25.7978 96.4341 25.73 96.9088 25.5623C97.3836 25.3947 97.8188 25.1309 98.1873 24.7873C98.5557 24.4438 98.8496 24.0279 99.0506 23.5656C99.2515 23.1033 99.3552 22.6045 99.3552 22.1002C99.3552 21.596 99.2515 21.0972 99.0506 20.6349C98.8496 20.1726 98.5557 19.7567 98.1873 19.4131C97.8188 19.0696 97.3836 18.8058 96.9088 18.6382C96.4341 18.4705 95.93 18.4027 95.4279 18.4388H95.4185ZM95.4185 24.1008H92.9219V20.0525H95.4185C95.9544 20.0525 96.4684 20.2657 96.8474 20.6453C97.2264 21.025 97.4392 21.5398 97.4392 22.0767C97.4392 22.6135 97.2264 23.1283 96.8474 23.508C96.4684 23.8876 95.9544 24.1008 95.4185 24.1008ZM106.281 22.4022C105.639 22.3638 105.001 22.5139 104.444 22.8342C103.886 23.1544 103.434 23.6307 103.144 24.2046L104.708 24.8558C104.862 24.5711 105.095 24.3375 105.38 24.1833C105.664 24.0292 105.987 23.9612 106.309 23.9876C106.533 23.9614 106.759 23.9801 106.976 24.0426C107.192 24.1051 107.394 24.2102 107.569 24.3516C107.745 24.493 107.89 24.668 107.997 24.8664C108.104 25.0647 108.171 25.2825 108.193 25.5069V25.6296C107.627 25.3295 106.996 25.1739 106.356 25.1766C104.67 25.1766 102.965 26.1203 102.965 27.8283C102.981 28.1925 103.071 28.5497 103.228 28.8787C103.384 29.2077 103.605 29.5019 103.878 29.7438C104.15 29.9857 104.468 30.1705 104.813 30.2873C105.158 30.404 105.522 30.4503 105.885 30.4234C106.328 30.4499 106.769 30.3571 107.163 30.1546C107.558 29.9521 107.891 29.6474 108.127 29.2722H108.184V30.2158H109.88V25.6956C109.898 23.6007 108.335 22.4305 106.328 22.4305L106.281 22.4022ZM106.064 28.8664C105.489 28.8664 104.689 28.5738 104.689 27.8661C104.689 26.9224 105.687 26.611 106.573 26.611C107.133 26.5972 107.686 26.734 108.174 27.0073C108.116 27.5182 107.874 27.9906 107.495 28.3374C107.116 28.6842 106.625 28.8821 106.111 28.8947L106.064 28.8664ZM116.032 22.657L114.015 27.7717H113.959L111.867 22.657H109.983L113.12 29.81L111.33 33.7829H113.168L118 22.657H116.032ZM100.195 30.2064H101.957V18.4388H100.289L100.195 30.2064Z" fill="white"/>
<path d="M38.1584 8.44198C38.3621 8.31804 38.5919 8.21416 38.8503 8.12849C39.1078 8.04283 39.4111 8 39.7602 8C40.3229 8 40.7662 8.13578 41.091 8.40644C41.4159 8.6771 41.5783 9.04253 41.5783 9.50273C41.5783 9.86817 41.4697 10.1744 41.2525 10.4222C41.0354 10.6701 40.7572 10.8351 40.4207 10.9171V10.9435C40.6064 10.9736 40.7823 11.0246 40.9474 11.0984C41.1134 11.1722 41.2588 11.2707 41.3827 11.3946C41.5074 11.5185 41.6061 11.6625 41.6788 11.8284C41.7506 11.9933 41.7874 12.1756 41.7874 12.377C41.7874 12.7069 41.7219 12.9839 41.5908 13.2081C41.4598 13.4323 41.2893 13.6145 41.0775 13.7567C40.8667 13.8979 40.6298 14 40.3686 14.0611C40.1075 14.1221 39.8464 14.154 39.5852 14.154C39.3062 14.154 39.0307 14.1239 38.7579 14.0656C38.4851 14.0073 38.2329 13.9098 38.0005 13.774L38.2356 13.0404C38.3864 13.117 38.5811 13.1908 38.8189 13.2618C39.0567 13.3329 39.2972 13.3676 39.5413 13.3676C39.9415 13.3676 40.2511 13.2764 40.4682 13.0942C40.6854 12.911 40.7949 12.6668 40.7949 12.3606C40.7949 12.1537 40.7509 11.9851 40.6639 11.8521C40.5759 11.719 40.4629 11.6151 40.3238 11.5377C40.1847 11.4611 40.0294 11.4083 39.858 11.3791C39.6866 11.3499 39.517 11.3344 39.3492 11.3344H38.9571V10.6081H39.3492C39.5287 10.6081 39.6956 10.5854 39.85 10.5371C40.0034 10.4906 40.1371 10.4241 40.2502 10.3384C40.3632 10.2527 40.4521 10.1507 40.5158 10.0331C40.5786 9.91555 40.6109 9.7825 40.6109 9.63487C40.6109 9.36968 40.5176 9.16191 40.3318 9.01154C40.1461 8.86118 39.8966 8.78554 39.5834 8.78554C39.369 8.78554 39.1536 8.82108 38.9391 8.89125C38.7247 8.96233 38.5326 9.03888 38.3639 9.1209L38.1584 8.44198Z" fill="white"/>
<path d="M45.6333 14.0552L45.5642 13.5604H45.5382C45.2547 13.955 44.8428 14.1527 44.3026 14.1527C44.1105 14.1527 43.9373 14.1199 43.7803 14.0552C43.6232 13.9905 43.4868 13.9021 43.3711 13.79C43.2544 13.678 43.1656 13.5458 43.101 13.3918C43.0373 13.2387 43.0059 13.0701 43.0059 12.8879C43.0059 12.352 43.2203 11.9492 43.6502 11.6813C44.08 11.4134 44.6884 11.2794 45.4781 11.2794V11.2001C45.4781 10.6342 45.1856 10.3517 44.6005 10.3517C44.1832 10.3517 43.8153 10.4583 43.4976 10.6697L43.3065 10.0428C43.695 9.79581 44.1787 9.67188 44.7575 9.67188C45.864 9.67188 46.4176 10.2642 46.4176 11.4489V13.0309C46.4176 13.4729 46.4383 13.8146 46.4787 14.0561H45.6333V14.0552ZM45.5032 11.9164C44.9783 11.9164 44.587 11.9838 44.3304 12.1196C44.0737 12.2554 43.9454 12.4769 43.9454 12.7831C43.9454 13.0072 44.0055 13.1749 44.1267 13.287C44.2478 13.3991 44.4013 13.4547 44.5861 13.4547C44.7073 13.4547 44.8221 13.4328 44.9325 13.3882C45.042 13.3444 45.138 13.2834 45.2215 13.2068C45.3058 13.1303 45.3731 13.0373 45.4261 12.928C45.4781 12.8186 45.5032 12.7029 45.5032 12.5789V11.9164Z" fill="white"/>
<path d="M50.9537 9.75928V10.5457H49.1949V14.0551H48.2554V9.75928H50.9537Z" fill="white"/>
<path d="M56.3318 11.8543C56.3318 12.196 56.2852 12.5086 56.1928 12.7911C56.0994 13.0745 55.9711 13.316 55.8051 13.5156C55.64 13.7161 55.4426 13.8728 55.2137 13.984C54.984 14.0961 54.7309 14.1526 54.4519 14.1526C53.8946 14.1526 53.4944 13.9494 53.2503 13.5429H53.2323V15.8057H52.2919V11.1736C52.2919 10.9439 52.2892 10.7124 52.2829 10.4792C52.2776 10.2468 52.2686 10.0062 52.2578 9.75832H53.0843L53.1372 10.4391H53.1552C53.4684 9.92691 53.944 9.66992 54.5829 9.66992C54.8315 9.66992 55.063 9.72278 55.2748 9.82849C55.4865 9.93511 55.6705 10.0837 55.8275 10.275C55.9846 10.4664 56.1075 10.696 56.1972 10.9649C56.287 11.2337 56.3318 11.5299 56.3318 11.8543ZM55.3753 11.8898C55.3753 11.6775 55.3501 11.4816 55.3008 11.3021C55.2514 11.1225 55.1787 10.9694 55.0836 10.8428C54.9885 10.7161 54.8718 10.6159 54.7354 10.542C54.599 10.4682 54.4465 10.4318 54.2778 10.4318C54.145 10.4318 54.014 10.4618 53.8856 10.5202C53.7573 10.5785 53.646 10.6587 53.5509 10.7589C53.4549 10.8592 53.3786 10.9804 53.3203 11.1216C53.262 11.2629 53.2323 11.4132 53.2323 11.5727V12.289C53.2323 12.4476 53.2566 12.5952 53.3068 12.731C53.3562 12.8668 53.4253 12.9843 53.515 13.0846C53.6048 13.1848 53.7124 13.2632 53.8372 13.3188C53.9619 13.3753 54.0992 13.4026 54.25 13.4026C54.6044 13.4026 54.8799 13.2659 55.0773 12.9916C55.2748 12.7173 55.3753 12.3491 55.3753 11.8898Z" fill="white"/>
<path d="M61.3831 9.75928L60.3116 12.7383C60.0568 13.4455 59.8082 14.0242 59.5677 14.4753C59.3263 14.9264 59.0966 15.2544 58.8758 15.4613C58.551 15.7556 58.2055 15.9361 57.8394 15.9999L57.6132 15.1961C57.8564 15.1314 58.0889 15.0047 58.3096 14.8161C58.5295 14.6274 58.7062 14.3923 58.8408 14.1089C58.8875 14.015 58.9099 13.9503 58.9099 13.9148C58.9099 13.8793 58.892 13.8118 58.8579 13.7116L57.3252 9.76019H58.3608L59.1621 12.156C59.2034 12.2681 59.2438 12.3948 59.2841 12.536C59.3254 12.6773 59.3685 12.834 59.4152 13.0044H59.4331C59.4618 12.9096 59.4941 12.7912 59.5282 12.6463C59.5632 12.5023 59.6099 12.3355 59.6673 12.1469L60.3816 9.76019H61.3831V9.75928Z" fill="white"/>
<path d="M63.0102 11.5445H63.4445C63.7631 11.5445 64.0108 11.4862 64.184 11.3677C64.3572 11.2493 64.4451 11.1053 64.4451 10.934C64.4451 10.7572 64.3715 10.6159 64.2226 10.5102C64.0754 10.4045 63.8699 10.3507 63.6088 10.3507C63.4401 10.3507 63.2705 10.379 63.1009 10.4346C62.9295 10.4911 62.7715 10.5603 62.6262 10.6423L62.383 10.0245C62.6262 9.88961 62.8684 9.79666 63.1107 9.74654C63.3512 9.69642 63.5926 9.6709 63.8367 9.6709C64.0296 9.6709 64.2226 9.69004 64.4164 9.72831C64.6093 9.76659 64.7825 9.83129 64.9333 9.92242C65.084 10.0135 65.2088 10.1329 65.303 10.2806C65.399 10.4282 65.4466 10.6104 65.4466 10.8292C65.4466 10.9649 65.4205 11.0843 65.3676 11.1873C65.3165 11.2903 65.2465 11.3814 65.1594 11.4607C65.0733 11.54 64.9755 11.6056 64.8687 11.6548C64.7619 11.7049 64.6515 11.7423 64.5429 11.766V11.7924C64.6811 11.8106 64.8166 11.8462 64.9476 11.899C65.0778 11.9519 65.1944 12.0211 65.3003 12.1068C65.4035 12.1925 65.4879 12.2954 65.5525 12.4157C65.6153 12.5369 65.6467 12.6736 65.6467 12.8267C65.6467 13.0801 65.5875 13.2924 65.4645 13.4628C65.3434 13.6341 65.1872 13.769 64.9979 13.8693C64.8103 13.9695 64.6021 14.0415 64.376 14.0861C64.1499 14.1299 63.9291 14.1527 63.7156 14.1527C63.4544 14.1527 63.1951 14.1244 62.9411 14.0688C62.6854 14.0123 62.4557 13.9258 62.252 13.8082L62.4969 13.1803C62.6477 13.2632 62.8191 13.3325 63.0138 13.3881C63.2085 13.4437 63.4069 13.4719 63.6097 13.4719C63.9282 13.4719 64.1741 13.4091 64.3455 13.2824C64.5151 13.1557 64.6012 12.9981 64.6012 12.8094C64.6012 12.6855 64.5734 12.5816 64.5151 12.4959C64.4568 12.4103 64.3751 12.341 64.2719 12.2882C64.1669 12.2353 64.0458 12.1979 63.9058 12.1779C63.7676 12.1569 63.615 12.1469 63.4535 12.1469H63.0102V11.5445Z" fill="white"/>
<path d="M68.0332 9.75963V11.2797C68.0332 11.6278 68.0278 11.9404 68.0152 12.2165C68.0027 12.4935 67.9892 12.7852 67.9713 13.0913L67.9892 13.1087C68.0996 12.8845 68.2082 12.6658 68.315 12.4498C68.4235 12.2347 68.5321 12.0151 68.6425 11.7909L69.687 9.75781H70.9048V14.0537H70.0164V12.5336C70.0164 12.2156 70.0253 11.8975 70.0388 11.5795C70.0531 11.2605 70.0684 10.9398 70.0864 10.6153H70.0424C69.9446 10.8805 69.8459 11.1102 69.7463 11.3052C69.6484 11.4993 69.5497 11.6998 69.4519 11.9067C69.2715 12.2602 69.093 12.6138 68.9153 12.9674C68.7385 13.321 68.551 13.6837 68.3544 14.0546H67.1367V9.75963H68.0332Z" fill="white"/>
<path d="M75.8666 9.75928V10.5457H74.5789V14.0551H73.6546V10.5457H72.375V9.75928H75.8666Z" fill="white"/>
<path d="M80.6623 11.7044C80.6623 11.7864 80.6587 11.8648 80.6533 11.9386C80.6479 12.0124 80.639 12.0789 80.6273 12.1373H77.8069C77.8195 12.5437 77.9451 12.8581 78.1856 13.0786C78.4261 13.2992 78.7446 13.4104 79.1386 13.4104C79.5505 13.4104 79.9309 13.3429 80.2791 13.2071L80.4263 13.8706C80.0252 14.0474 79.5532 14.1357 79.0067 14.1357C78.6773 14.1357 78.3812 14.0838 78.1201 13.9808C77.8589 13.8778 77.6382 13.732 77.4578 13.5434C77.2792 13.3548 77.1401 13.1278 77.0441 12.8627C76.9499 12.5975 76.9023 12.3004 76.9023 11.9705C76.9023 11.6406 76.9499 11.3353 77.0441 11.0556C77.1401 10.7758 77.2756 10.5325 77.4488 10.3265C77.6238 10.1196 77.8347 9.95835 78.0797 9.83988C78.3265 9.72232 78.602 9.66309 78.9035 9.66309C79.17 9.66309 79.4114 9.71138 79.6312 9.80889C79.8484 9.90549 80.0341 10.044 80.1867 10.2244C80.341 10.404 80.4586 10.62 80.5394 10.8696C80.6219 11.1193 80.6623 11.3982 80.6623 11.7044ZM79.7649 11.4574C79.7649 11.1212 79.686 10.8487 79.5262 10.64C79.3665 10.4313 79.1359 10.3256 78.8344 10.3256C78.5607 10.3256 78.33 10.4313 78.1389 10.6436C77.9478 10.856 77.8374 11.1266 77.8078 11.4574H79.7649Z" fill="white"/>
<path d="M84.4492 9.79429C84.6179 9.76513 84.8315 9.74143 85.0926 9.72321C85.3538 9.70498 85.6203 9.69678 85.894 9.69678C86.0672 9.69678 86.2637 9.70771 86.4809 9.72776C86.698 9.74781 86.9071 9.7952 87.1027 9.86901C87.301 9.94283 87.4653 10.0531 87.599 10.2007C87.7327 10.3484 87.8009 10.5479 87.8009 10.8013C87.8009 10.9316 87.7766 11.0482 87.7309 11.1503C87.6833 11.2533 87.6223 11.3435 87.5433 11.42C87.4644 11.4966 87.3746 11.5604 87.2732 11.6096C87.1718 11.6597 87.0668 11.6971 86.9556 11.7199L86.9645 11.7463C87.2714 11.7991 87.5218 11.9112 87.7129 12.0826C87.9041 12.2539 88.0001 12.489 88.0001 12.7897C88.0001 13.0905 87.9175 13.3292 87.7569 13.506C87.5936 13.6828 87.3944 13.8159 87.1557 13.9043C86.917 13.9926 86.6666 14.0491 86.4019 14.0728C86.139 14.0956 85.9021 14.1084 85.6939 14.1084C85.4605 14.1084 85.2326 14.1029 85.0101 14.0902C84.7857 14.0783 84.6 14.0665 84.4492 14.0546V9.79429ZM85.3538 11.5094H85.8321C85.9774 11.5094 86.1156 11.4993 86.2457 11.4784C86.3768 11.4583 86.4907 11.4255 86.5894 11.3818C86.689 11.3371 86.7644 11.2788 86.821 11.205C86.8757 11.1312 86.9035 11.0419 86.9035 10.9352C86.9035 10.7411 86.8245 10.5981 86.663 10.5069C86.5033 10.4158 86.2529 10.3702 85.911 10.3702C85.8132 10.3702 85.7271 10.373 85.6535 10.3793C85.5817 10.3848 85.4821 10.3939 85.3538 10.4058V11.5094ZM85.3538 13.4094C85.4695 13.4213 85.5673 13.4295 85.6445 13.4358C85.7235 13.4422 85.8141 13.445 85.92 13.445C86.0483 13.445 86.1775 13.4368 86.3112 13.4185C86.4441 13.4012 86.567 13.3675 86.6774 13.3174C86.7877 13.2682 86.8757 13.2007 86.9421 13.1151C87.0085 13.0303 87.0435 12.9173 87.0435 12.777C87.0435 12.5309 86.9349 12.3614 86.7213 12.2676C86.506 12.1737 86.217 12.1272 85.85 12.1272H85.3538V13.4094Z" fill="white"/>
<defs>
<linearGradient id="paint0_linear_173_1838" x1="22.2714" y1="11.3286" x2="7.93776" y2="25.891" gradientUnits="userSpaceOnUse">
<stop stop-color="#4998D3"/>
<stop offset="0.01" stop-color="#4A99D3"/>
<stop offset="0.26" stop-color="#42BAEB"/>
<stop offset="0.51" stop-color="#41C7F2"/>
<stop offset="0.76" stop-color="#56C9E9"/>
<stop offset="1" stop-color="#5BCAE8"/>
</linearGradient>
<linearGradient id="paint1_linear_173_1838" x1="32.7122" y1="20.9751" x2="11.7165" y2="20.9751" gradientUnits="userSpaceOnUse">
<stop stop-color="#FEE000"/>
<stop offset="0.41" stop-color="#FEBD11"/>
<stop offset="0.78" stop-color="#FAA51A"/>
<stop offset="1" stop-color="#F99C1C"/>
</linearGradient>
<linearGradient id="paint2_linear_173_1838" x1="24.9008" y1="22.9391" x2="5.45879" y2="42.6826" gradientUnits="userSpaceOnUse">
<stop stop-color="#EF4049"/>
<stop offset="1" stop-color="#C31E63"/>
</linearGradient>
<linearGradient id="paint3_linear_173_1838" x1="9.68566" y1="4.04178" x2="18.3645" y2="12.859" gradientUnits="userSpaceOnUse">
<stop stop-color="#32A072"/>
<stop offset="0.07" stop-color="#2DA771"/>
<stop offset="0.48" stop-color="#4BBA71"/>
<stop offset="0.8" stop-color="#5EBD6B"/>
<stop offset="1" stop-color="#66BE69"/>
</linearGradient>
</defs>
</svg>
