<svg width="106" height="26" viewBox="0 0 106 26" fill="none" xmlns="http://www.w3.org/2000/svg">
<path d="M0.402873 2.29492C0.119978 2.62905 -0.0228288 3.0568 0.00359712 3.49096V22.3885C-0.0228288 22.8227 0.119978 23.2505 0.402873 23.5846L0.463609 23.6444L11.2175 13.0594V12.8116L0.472297 2.29492H0.402873Z" fill="url(#paint0_linear_134_1077)"/>
<path d="M14.7668 16.6316L11.1821 13.1032V12.8555L14.7668 9.32715L14.8449 9.36985L19.0892 11.7449C20.3043 12.4198 20.3043 13.5304 19.0892 14.2139L14.8449 16.5889L14.7668 16.6316Z" fill="url(#paint1_linear_134_1077)"/>
<path d="M14.8884 16.5794L11.2257 12.9741L0.402344 23.6531C0.650024 23.8674 0.965979 23.9898 1.29562 23.9992C1.62525 24.0086 1.94785 23.9043 2.20767 23.7044L14.8884 16.6135" fill="url(#paint2_linear_134_1077)"/>
<path d="M14.8887 9.36917L2.20791 2.2954C1.94809 2.0955 1.6255 1.99122 1.29586 2.00058C0.966223 2.00994 0.650268 2.13235 0.402588 2.34666L11.2172 12.9915L14.8887 9.36917Z" fill="url(#paint3_linear_134_1077)"/>
<path opacity="0.2" d="M14.7674 16.5024L2.16482 23.5506C1.91424 23.735 1.60976 23.8346 1.29688 23.8346C0.983995 23.8346 0.679513 23.735 0.428927 23.5506L0.368164 23.6104L0.428927 23.6702C0.678944 23.8559 0.983644 23.9564 1.29688 23.9564C1.61011 23.9564 1.91481 23.8559 2.16482 23.6702L14.8455 16.5793L14.7674 16.5024Z" fill="#010101"/>
<path opacity="0.12" d="M0.402873 23.4998C0.119978 23.1656 -0.0228288 22.7379 0.00359712 22.3037V22.4319C-0.0228288 22.866 0.119978 23.2938 0.402873 23.6279L0.463609 23.5681L0.402873 23.4998Z" fill="#010101"/>
<path opacity="0.12" d="M19.1073 14.0847L14.7676 16.5025L14.8457 16.5794L19.09 14.2043C19.3318 14.0925 19.5394 13.9199 19.6917 13.7039C19.8441 13.4879 19.9359 13.2362 19.9579 12.9741C19.911 13.2106 19.81 13.4335 19.6626 13.6259C19.5152 13.8183 19.3254 13.9752 19.1073 14.0847Z" fill="#010101"/>
<path opacity="0.25" d="M2.2085 2.39806L19.1075 11.8639C19.3288 11.9715 19.5221 12.1275 19.6725 12.32C19.823 12.5125 19.9266 12.7364 19.9754 12.9745C19.9534 12.7125 19.8616 12.4607 19.7092 12.2447C19.5569 12.0288 19.3493 11.8561 19.1075 11.7443L2.2085 2.29555C0.993376 1.62063 0.00390625 2.18449 0.00390625 3.5514V3.67954C0.0125857 2.29554 1.00206 1.72315 2.2085 2.39806Z" fill="white"/>
<path d="M51.6981 14.4494C50.907 14.4531 50.1348 14.6915 49.4788 15.1345C48.8228 15.5774 48.3126 16.2051 48.0124 16.9383C47.7123 17.6714 47.6357 18.4772 47.7923 19.254C47.9489 20.0307 48.3317 20.7435 48.8924 21.3025C49.4531 21.8615 50.1665 22.2416 50.9427 22.3949C51.7189 22.5481 52.523 22.4676 53.2535 22.1635C53.984 21.8594 54.6082 21.3453 55.0474 20.6862C55.4865 20.0271 55.7208 19.2524 55.7208 18.46C55.7285 17.9296 55.6296 17.4031 55.4299 16.9118C55.2302 16.4205 54.9339 15.9744 54.5585 15.6002C54.1832 15.226 53.7365 14.9313 53.2451 14.7336C52.7537 14.5359 52.2276 14.4392 51.6981 14.4494ZM51.6981 20.8947C51.2116 20.9287 50.7261 20.8154 50.3047 20.5695C49.8833 20.3235 49.5456 19.9562 49.3353 19.5154C49.1251 19.0746 49.0521 18.5807 49.1259 18.0978C49.1996 17.6149 49.4167 17.1653 49.7489 16.8077C50.0811 16.45 50.513 16.2007 50.9885 16.0921C51.464 15.9836 51.9611 16.0208 52.4152 16.1991C52.8693 16.3773 53.2594 16.6882 53.5347 17.0914C53.8101 17.4946 53.9579 17.9715 53.9591 18.46C53.9743 18.7695 53.9274 19.079 53.8213 19.3701C53.7152 19.6612 53.552 19.9281 53.3412 20.155C53.1305 20.3819 52.8766 20.5643 52.5944 20.6913C52.3122 20.8184 52.0074 20.8875 51.6981 20.8947ZM42.9272 14.4494C42.1361 14.4531 41.3638 14.6915 40.7079 15.1345C40.0519 15.5774 39.5417 16.2051 39.2415 16.9383C38.9414 17.6714 38.8647 18.4772 39.0214 19.254C39.178 20.0307 39.5608 20.7435 40.1215 21.3025C40.6822 21.8615 41.3956 22.2416 42.1718 22.3949C42.948 22.5481 43.752 22.4676 44.4826 22.1635C45.2131 21.8594 45.8373 21.3453 46.2764 20.6862C46.7156 20.0271 46.9499 19.2524 46.9499 18.46C46.9576 17.9288 46.8584 17.4015 46.6582 16.9095C46.4579 16.4176 46.1607 15.9711 45.7844 15.5968C45.408 15.2224 44.9602 14.9279 44.4677 14.7308C43.9752 14.5336 43.448 14.4379 42.9178 14.4494H42.9272ZM42.9272 20.8947C42.4407 20.9287 41.9552 20.8154 41.5338 20.5695C41.1124 20.3235 40.7747 19.9562 40.5644 19.5154C40.3542 19.0746 40.2812 18.5807 40.355 18.0978C40.4287 17.6149 40.6458 17.1653 40.978 16.8077C41.3101 16.45 41.7421 16.2007 42.2176 16.0921C42.6931 15.9836 43.1902 16.0208 43.6443 16.1991C44.0984 16.3773 44.4885 16.6882 44.7638 17.0914C45.0391 17.4946 45.187 17.9715 45.1882 18.46C45.2034 18.7703 45.1563 19.0805 45.0496 19.3723C44.9429 19.664 44.7788 19.9313 44.567 20.1583C44.3553 20.3854 44.1002 20.5675 43.8169 20.694C43.5336 20.8205 43.2279 20.8887 42.9178 20.8947H42.9272ZM32.4888 15.6762V17.3748H36.5586C36.4948 18.1748 36.1628 18.9298 35.6165 19.5169C35.2093 19.9324 34.7198 20.2578 34.1795 20.4723C33.6392 20.6869 33.0601 20.7857 32.4794 20.7626C31.28 20.7626 30.1298 20.2853 29.2818 19.4359C28.4337 18.5864 27.9573 17.4343 27.9573 16.233C27.9573 15.0316 28.4337 13.8795 29.2818 13.03C30.1298 12.1805 31.28 11.7033 32.4794 11.7033C33.6201 11.6896 34.7203 12.127 35.5412 12.9207L36.7376 11.7222C36.1764 11.1655 35.5098 10.7267 34.7769 10.4318C34.044 10.1369 33.2596 9.99166 32.4699 10.0047C31.6324 9.97207 30.7969 10.1091 30.0135 10.4076C29.2301 10.7062 28.515 11.16 27.9109 11.742C27.3068 12.324 26.8262 13.0222 26.498 13.7947C26.1697 14.5672 26.0005 15.3981 26.0005 16.2376C26.0005 17.0772 26.1697 17.9081 26.498 18.6806C26.8262 19.4531 27.3068 20.1513 27.9109 20.7333C28.515 21.3153 29.2301 21.7692 30.0135 22.0677C30.7969 22.3662 31.6324 22.5033 32.4699 22.4706C33.2763 22.5071 34.0811 22.3702 34.8303 22.069C35.5794 21.7679 36.2555 21.3096 36.813 20.7248C37.8 19.6386 38.327 18.2106 38.2827 16.7425C38.2857 16.3849 38.2541 16.0277 38.1885 15.6762H32.4888ZM75.1751 16.9973C74.9294 16.2733 74.47 15.641 73.8576 15.1844C73.2453 14.7277 72.5088 14.4681 71.7459 14.44C71.2306 14.4389 70.7205 14.5438 70.2472 14.7481C69.774 14.9524 69.3476 15.2517 68.9944 15.6276C68.6412 16.0035 68.3687 16.448 68.1938 16.9335C68.0189 17.4191 67.9453 17.9354 67.9775 18.4506C67.9661 18.978 68.0608 19.5023 68.2562 19.9922C68.4516 20.4821 68.7436 20.9276 69.1147 21.3019C69.4857 21.6763 69.9284 21.9719 70.4161 22.1711C70.9038 22.3702 71.4265 22.4689 71.9531 22.4612C72.6121 22.4647 73.2617 22.3045 73.8438 21.9949C74.4258 21.6853 74.9221 21.2359 75.2882 20.6871L73.9221 19.7434C73.7183 20.0838 73.4296 20.3655 73.0845 20.5607C72.7393 20.7559 72.3495 20.8579 71.9531 20.8569C71.5451 20.8725 71.1418 20.7647 70.7956 20.5476C70.4495 20.3305 70.1766 20.0141 70.0124 19.6396L75.3729 17.422L75.1751 16.9973ZM69.711 18.3373C69.6919 18.0454 69.7311 17.7527 69.8264 17.4762C69.9217 17.1997 70.0711 16.945 70.2658 16.7271C70.4606 16.5091 70.6968 16.3323 70.9607 16.2069C71.2245 16.0816 71.5107 16.0102 71.8024 15.997C72.1063 15.977 72.4094 16.0468 72.674 16.1978C72.9386 16.3488 73.1532 16.5743 73.291 16.8463L69.711 18.3373ZM65.3585 22.2252H67.1202V10.4388H65.3585V22.2252ZM62.4757 15.3365H62.4191C62.1536 15.0391 61.8283 14.8013 61.4647 14.6387C61.101 14.4761 60.7071 14.3923 60.3088 14.3928C59.2793 14.4428 58.3084 14.8877 57.5975 15.6352C56.8865 16.3828 56.4899 17.3756 56.4899 18.4081C56.4899 19.4406 56.8865 20.4335 57.5975 21.181C58.3084 21.9285 59.2793 22.3734 60.3088 22.4234C60.7081 22.4302 61.1039 22.3491 61.4685 22.1861C61.8331 22.0231 62.1576 21.782 62.4191 21.4798H62.4757V22.0554C62.4757 23.5936 61.6561 24.4146 60.3371 24.4146C59.8979 24.4043 59.4716 24.2633 59.1125 24.0095C58.7535 23.7558 58.478 23.4007 58.321 22.9896L56.7854 23.6313C57.0745 24.3357 57.567 24.9374 58.1998 25.3594C58.8326 25.7814 59.5769 26.0045 60.3371 25.9999C62.4003 25.9999 64.1055 24.7826 64.1055 21.8195V14.6098H62.438L62.4757 15.3365ZM60.4596 20.8852C59.8519 20.8316 59.2863 20.5519 58.8743 20.1012C58.4623 19.6505 58.2337 19.0616 58.2337 18.4506C58.2337 17.8395 58.4623 17.2506 58.8743 16.7999C59.2863 16.3493 59.8519 16.0695 60.4596 16.0159C61.0521 16.0899 61.5972 16.3782 61.9925 16.8266C62.3877 17.2749 62.6058 17.8524 62.6058 18.4506C62.6058 19.0487 62.3877 19.6262 61.9925 20.0745C61.5972 20.5229 61.0521 20.8112 60.4596 20.8852ZM83.4185 10.4388H79.2073V22.2347H80.969V17.7617H83.4279C83.93 17.7978 84.4341 17.73 84.9088 17.5623C85.3836 17.3947 85.8188 17.1309 86.1873 16.7873C86.5557 16.4438 86.8496 16.0279 87.0506 15.5656C87.2515 15.1033 87.3552 14.6045 87.3552 14.1002C87.3552 13.596 87.2515 13.0972 87.0506 12.6349C86.8496 12.1726 86.5557 11.7567 86.1873 11.4131C85.8188 11.0696 85.3836 10.8058 84.9088 10.6382C84.4341 10.4705 83.93 10.4027 83.4279 10.4388H83.4185ZM83.4185 16.1008H80.9219V12.0525H83.4185C83.9544 12.0525 84.4684 12.2657 84.8474 12.6453C85.2264 13.025 85.4392 13.5398 85.4392 14.0767C85.4392 14.6135 85.2264 15.1283 84.8474 15.508C84.4684 15.8876 83.9544 16.1008 83.4185 16.1008ZM94.2808 14.4022C93.6395 14.3638 93.0009 14.5139 92.4435 14.8342C91.8862 15.1544 91.4344 15.6307 91.1437 16.2046L92.7075 16.8558C92.8617 16.5711 93.0952 16.3375 93.3795 16.1833C93.6639 16.0292 93.9869 15.9612 94.3091 15.9876C94.5327 15.9614 94.7593 15.9801 94.9757 16.0426C95.192 16.1051 95.3938 16.2102 95.5692 16.3516C95.7446 16.493 95.8901 16.668 95.9972 16.8664C96.1044 17.0647 96.1711 17.2825 96.1933 17.5069V17.6296C95.6275 17.3295 94.9964 17.1739 94.3562 17.1766C92.6698 17.1766 90.9647 18.1203 90.9647 19.8283C90.9813 20.1925 91.0707 20.5497 91.2275 20.8787C91.3843 21.2077 91.6054 21.5019 91.8777 21.7438C92.15 21.9857 92.4679 22.1705 92.8127 22.2873C93.1575 22.404 93.5222 22.4503 93.8851 22.4234C94.3275 22.4499 94.7689 22.3571 95.1632 22.1546C95.5576 21.9521 95.8905 21.6474 96.1273 21.2722H96.1839V22.2158H97.8796V17.6956C97.8985 15.6007 96.3346 14.4305 94.3279 14.4305L94.2808 14.4022ZM94.0641 20.8664C93.4895 20.8664 92.6887 20.5738 92.6887 19.8661C92.6887 18.9224 93.6873 18.611 94.5729 18.611C95.1325 18.5972 95.6856 18.734 96.1744 19.0073C96.1155 19.5182 95.8743 19.9906 95.4952 20.3374C95.116 20.6842 94.6245 20.8821 94.1112 20.8947L94.0641 20.8664ZM104.032 14.657L102.015 19.7717H101.959L99.8674 14.657H97.9832L101.12 21.81L99.3304 25.7829H101.168L106 14.657H104.032ZM88.1949 22.2064H89.9566V10.4388H88.2891L88.1949 22.2064Z" fill="white"/>
<path d="M26.1584 0.44198C26.3621 0.318044 26.5919 0.214155 26.8503 0.128493C27.1078 0.0428309 27.4111 0 27.7602 0C28.3229 0 28.7662 0.135784 29.091 0.40644C29.4159 0.677096 29.5783 1.04253 29.5783 1.50273C29.5783 1.86817 29.4697 2.17436 29.2525 2.42224C29.0354 2.67011 28.7572 2.83506 28.4207 2.91707V2.9435C28.6064 2.97357 28.7823 3.02461 28.9474 3.09842C29.1134 3.17224 29.2588 3.27066 29.3827 3.39459C29.5074 3.51853 29.6061 3.66252 29.6788 3.82837C29.7506 3.99332 29.7874 4.17558 29.7874 4.37698C29.7874 4.70687 29.7219 4.9839 29.5908 5.20808C29.4598 5.43226 29.2893 5.61452 29.0775 5.75668C28.8667 5.89793 28.6298 6 28.3686 6.06106C28.1075 6.12212 27.8464 6.15401 27.5852 6.15401C27.3062 6.15401 27.0307 6.12394 26.7579 6.06561C26.4851 6.00729 26.2329 5.90978 26.0005 5.774L26.2356 5.0404C26.3864 5.11695 26.5811 5.19077 26.8189 5.26185C27.0567 5.33293 27.2972 5.36756 27.5413 5.36756C27.9415 5.36756 28.2511 5.27643 28.4682 5.09417C28.6854 4.911 28.7949 4.66677 28.7949 4.36057C28.7949 4.15371 28.7509 3.98512 28.6639 3.85207C28.5759 3.71902 28.4629 3.61513 28.3238 3.53767C28.1847 3.46112 28.0294 3.40826 27.858 3.3791C27.6866 3.34994 27.517 3.33445 27.3492 3.33445H26.9571V2.60814H27.3492C27.5287 2.60814 27.6956 2.58536 27.85 2.53706C28.0034 2.49058 28.1371 2.42406 28.2502 2.3384C28.3632 2.25273 28.4521 2.15067 28.5158 2.03311C28.5786 1.91555 28.6109 1.7825 28.6109 1.63487C28.6109 1.36968 28.5176 1.16191 28.3318 1.01154C28.1461 0.861178 27.8966 0.785541 27.5834 0.785541C27.369 0.785541 27.1536 0.821081 26.9391 0.891251C26.7247 0.962333 26.5326 1.03888 26.3639 1.1209L26.1584 0.44198Z" fill="white"/>
<path d="M33.6333 6.05523L33.5642 5.56039H33.5382C33.2547 5.95499 32.8428 6.15274 32.3026 6.15274C32.1105 6.15274 31.9373 6.11993 31.7803 6.05523C31.6232 5.99053 31.4868 5.90213 31.3711 5.79004C31.2544 5.67795 31.1656 5.54581 31.101 5.3918C31.0373 5.2387 31.0059 5.07011 31.0059 4.88785C31.0059 4.35201 31.2203 3.94921 31.6502 3.68129C32.08 3.41337 32.6884 3.27941 33.4781 3.27941V3.20013C33.4781 2.63421 33.1856 2.35171 32.6005 2.35171C32.1832 2.35171 31.8153 2.45833 31.4976 2.66975L31.3065 2.04277C31.695 1.79581 32.1787 1.67188 32.7575 1.67188C33.864 1.67188 34.4176 2.26422 34.4176 3.44891V5.03093C34.4176 5.47291 34.4383 5.81465 34.4787 6.05614H33.6333V6.05523ZM33.5032 3.91641C32.9783 3.91641 32.587 3.98384 32.3304 4.11963C32.0737 4.25541 31.9454 4.47686 31.9454 4.78305C31.9454 5.00723 32.0055 5.17491 32.1267 5.287C32.2478 5.39909 32.4013 5.45468 32.5861 5.45468C32.7073 5.45468 32.8221 5.43281 32.9325 5.38816C33.042 5.34442 33.138 5.28336 33.2215 5.20681C33.3058 5.13026 33.3731 5.03731 33.4261 4.92795C33.4781 4.8186 33.5032 4.70286 33.5032 4.57892V3.91641Z" fill="white"/>
<path d="M38.9537 1.75928V2.54573H37.1949V6.05515H36.2554V1.75928H38.9537Z" fill="white"/>
<path d="M44.3318 3.85431C44.3318 4.19605 44.2852 4.50862 44.1928 4.79112C44.0994 5.07454 43.9711 5.31603 43.8051 5.51561C43.64 5.71609 43.4426 5.87284 43.2137 5.98402C42.984 6.09611 42.7309 6.15261 42.4519 6.15261C41.8946 6.15261 41.4944 5.94939 41.2503 5.54295H41.2323V7.80571H40.2919V3.17357C40.2919 2.94392 40.2892 2.71245 40.2829 2.47916C40.2776 2.24677 40.2686 2.00619 40.2578 1.75832H41.0843L41.1372 2.43906H41.1552C41.4684 1.92691 41.944 1.66992 42.5829 1.66992C42.8315 1.66992 43.063 1.72278 43.2748 1.82849C43.4865 1.93511 43.6705 2.08365 43.8275 2.27502C43.9846 2.4664 44.1075 2.69605 44.1972 2.96488C44.287 3.23371 44.3318 3.52989 44.3318 3.85431ZM43.3753 3.88985C43.3753 3.67752 43.3501 3.48159 43.3008 3.30206C43.2514 3.12253 43.1787 2.96944 43.0836 2.84277C42.9885 2.71609 42.8718 2.61585 42.7354 2.54204C42.599 2.46822 42.4465 2.43177 42.2778 2.43177C42.145 2.43177 42.014 2.46184 41.8856 2.52016C41.7573 2.57849 41.646 2.65868 41.5509 2.75893C41.4549 2.85917 41.3786 2.98037 41.3203 3.12162C41.262 3.26287 41.2323 3.41324 41.2323 3.57272V4.289C41.2323 4.44757 41.2566 4.5952 41.3068 4.73098C41.3562 4.86676 41.4253 4.98432 41.515 5.08456C41.6048 5.18481 41.7124 5.26318 41.8372 5.31877C41.9619 5.37527 42.0992 5.40261 42.25 5.40261C42.6044 5.40261 42.8799 5.26591 43.0773 4.99161C43.2748 4.71731 43.3753 4.34914 43.3753 3.88985Z" fill="white"/>
<path d="M49.3831 1.75928L48.3116 4.73832C48.0568 5.44549 47.8082 6.02416 47.5677 6.47526C47.3263 6.92635 47.0966 7.25442 46.8758 7.46128C46.551 7.75563 46.2055 7.93607 45.8394 7.99986L45.6132 7.1961C45.8564 7.13139 46.0889 7.00472 46.3096 6.81608C46.5295 6.62744 46.7062 6.39233 46.8408 6.10891C46.8875 6.01505 46.9099 5.95035 46.9099 5.91481C46.9099 5.87927 46.892 5.81183 46.8579 5.71159L45.3252 1.76019H46.3608L47.1621 4.156C47.2034 4.26809 47.2438 4.39476 47.2841 4.53601C47.3254 4.67726 47.3685 4.834 47.4152 5.00442H47.4331C47.4618 4.90964 47.4941 4.79117 47.5282 4.64628C47.5632 4.50229 47.6099 4.33552 47.6673 4.14688L48.3816 1.76019H49.3831V1.75928Z" fill="white"/>
<path d="M51.0102 3.54453H51.4445C51.7631 3.54453 52.0108 3.48621 52.184 3.36774C52.3572 3.24927 52.4451 3.10529 52.4451 2.93396C52.4451 2.75717 52.3715 2.61592 52.2226 2.51021C52.0754 2.4045 51.8699 2.35073 51.6088 2.35073C51.4401 2.35073 51.2705 2.37898 51.1009 2.43457C50.9295 2.49107 50.7715 2.56033 50.6262 2.64234L50.383 2.02448C50.6262 1.88961 50.8684 1.79666 51.1107 1.74654C51.3512 1.69642 51.5926 1.6709 51.8367 1.6709C52.0296 1.6709 52.2226 1.69004 52.4164 1.72831C52.6093 1.76659 52.7825 1.83129 52.9333 1.92242C53.084 2.01355 53.2088 2.13293 53.303 2.28056C53.399 2.42819 53.4466 2.61045 53.4466 2.82916C53.4466 2.96494 53.4205 3.08433 53.3676 3.1873C53.3165 3.29028 53.2465 3.38141 53.1594 3.46069C53.0733 3.53998 52.9755 3.60559 52.8687 3.6548C52.7619 3.70492 52.6515 3.74228 52.5429 3.76598V3.79241C52.6811 3.81063 52.8166 3.84617 52.9476 3.89903C53.0778 3.95188 53.1944 4.02114 53.3003 4.1068C53.4035 4.19247 53.4879 4.29544 53.5525 4.41574C53.6153 4.53694 53.6467 4.67363 53.6467 4.82673C53.6467 5.08007 53.5875 5.29241 53.4645 5.46282C53.3434 5.63414 53.1872 5.76902 52.9979 5.86926C52.8103 5.9695 52.6021 6.0415 52.376 6.08615C52.1499 6.12989 51.9291 6.15267 51.7156 6.15267C51.4544 6.15267 51.1951 6.12442 50.9411 6.06883C50.6854 6.01233 50.4557 5.92576 50.252 5.8082L50.4969 5.18032C50.6477 5.26324 50.8191 5.3325 51.0138 5.38809C51.2085 5.44368 51.4069 5.47193 51.6097 5.47193C51.9282 5.47193 52.1741 5.40905 52.3455 5.28238C52.5151 5.15571 52.6012 4.99806 52.6012 4.80942C52.6012 4.68548 52.5734 4.58159 52.5151 4.49593C52.4568 4.41027 52.3751 4.34101 52.2719 4.28815C52.1669 4.2353 52.0458 4.19793 51.9058 4.17789C51.7676 4.15693 51.615 4.1469 51.4535 4.1469H51.0102V3.54453Z" fill="white"/>
<path d="M56.0332 1.75963V3.27968C56.0332 3.6278 56.0278 3.94038 56.0152 4.2165C56.0027 4.49354 55.9892 4.78515 55.9713 5.09135L55.9892 5.10866C56.0996 4.88448 56.2082 4.66577 56.315 4.44979C56.4235 4.23473 56.5321 4.0151 56.6425 3.79092L57.687 1.75781H58.9048V6.05368H58.0164V4.53363C58.0164 4.21559 58.0253 3.89755 58.0388 3.5795C58.0531 3.26055 58.0684 2.93977 58.0864 2.61535H58.0424C57.9446 2.88053 57.8459 3.11018 57.7463 3.3052C57.6484 3.49931 57.5497 3.69979 57.4519 3.90666C57.2715 4.26024 57.093 4.61383 56.9153 4.96741C56.7385 5.321 56.551 5.68369 56.3544 6.05459H55.1367V1.75963H56.0332Z" fill="white"/>
<path d="M63.8666 1.75928V2.54573H62.5789V6.05515H61.6546V2.54573H60.375V1.75928H63.8666Z" fill="white"/>
<path d="M68.6623 3.7044C68.6623 3.78642 68.6587 3.86479 68.6533 3.9386C68.6479 4.01242 68.639 4.07894 68.6273 4.13727H65.8069C65.8195 4.54371 65.9451 4.8581 66.1856 5.07864C66.4261 5.29917 66.7446 5.41035 67.1386 5.41035C67.5505 5.41035 67.9309 5.34292 68.2791 5.20713L68.4263 5.87056C68.0252 6.04735 67.5532 6.13575 67.0067 6.13575C66.6773 6.13575 66.3812 6.0838 66.1201 5.98083C65.8589 5.87785 65.6382 5.73204 65.4578 5.5434C65.2792 5.35476 65.1401 5.12785 65.0441 4.86266C64.9499 4.59747 64.9023 4.30039 64.9023 3.9705C64.9023 3.64061 64.9499 3.33532 65.0441 3.05555C65.1401 2.77578 65.2756 2.53247 65.4488 2.32651C65.6238 2.11965 65.8347 1.95835 66.0797 1.83988C66.3265 1.72232 66.602 1.66309 66.9035 1.66309C67.17 1.66309 67.4114 1.71138 67.6312 1.80889C67.8484 1.90549 68.0341 2.04401 68.1867 2.22445C68.341 2.40397 68.4586 2.61995 68.5394 2.86965C68.6219 3.11934 68.6623 3.3982 68.6623 3.7044ZM67.7649 3.45744C67.7649 3.12117 67.686 2.84869 67.5262 2.64C67.3665 2.43131 67.1359 2.3256 66.8344 2.3256C66.5607 2.3256 66.33 2.43131 66.1389 2.64365C65.9478 2.85598 65.8374 3.12663 65.8078 3.45744H67.7649Z" fill="white"/>
<path d="M72.4492 1.79429C72.6179 1.76513 72.8315 1.74143 73.0926 1.72321C73.3538 1.70498 73.6203 1.69678 73.894 1.69678C74.0672 1.69678 74.2637 1.70771 74.4809 1.72776C74.698 1.74781 74.9071 1.7952 75.1027 1.86901C75.301 1.94283 75.4653 2.0531 75.599 2.20073C75.7327 2.34836 75.8009 2.54793 75.8009 2.80127C75.8009 2.93159 75.7766 3.04824 75.7309 3.1503C75.6833 3.25328 75.6223 3.3435 75.5433 3.42005C75.4644 3.4966 75.3746 3.56039 75.2732 3.6096C75.1718 3.65972 75.0668 3.69708 74.9556 3.71986L74.9645 3.74629C75.2714 3.79915 75.5218 3.91124 75.7129 4.08256C75.9041 4.25389 76.0001 4.489 76.0001 4.78973C76.0001 5.09046 75.9175 5.32922 75.7569 5.50601C75.5936 5.68281 75.3944 5.81586 75.1557 5.90425C74.917 5.99265 74.6666 6.04915 74.4019 6.07284C74.139 6.09562 73.9021 6.10838 73.6939 6.10838C73.4605 6.10838 73.2326 6.10291 73.0101 6.09016C72.7857 6.07831 72.6 6.06646 72.4492 6.05462V1.79429ZM73.3538 3.50935H73.8321C73.9774 3.50935 74.1156 3.49933 74.2457 3.47837C74.3768 3.45832 74.4907 3.42551 74.5894 3.38177C74.689 3.33712 74.7644 3.27879 74.821 3.20498C74.8757 3.13116 74.9035 3.04186 74.9035 2.93523C74.9035 2.74113 74.8245 2.59805 74.663 2.50692C74.5033 2.41579 74.2529 2.37023 73.911 2.37023C73.8132 2.37023 73.7271 2.37296 73.6535 2.37934C73.5817 2.38481 73.4821 2.39392 73.3538 2.40577V3.50935ZM73.3538 5.40942C73.4695 5.42126 73.5673 5.42946 73.6445 5.43584C73.7235 5.44222 73.8141 5.44496 73.92 5.44496C74.0483 5.44496 74.1775 5.43675 74.3112 5.41853C74.4441 5.40121 74.567 5.3675 74.6774 5.31737C74.7877 5.26816 74.8757 5.20073 74.9421 5.11507C75.0085 5.03031 75.0435 4.91731 75.0435 4.77697C75.0435 4.53092 74.9349 4.36142 74.7213 4.26756C74.506 4.17369 74.217 4.12722 73.85 4.12722H73.3538V5.40942Z" fill="white"/>
<defs>
<linearGradient id="paint0_linear_134_1077" x1="10.2714" y1="3.32865" x2="-4.06224" y2="17.891" gradientUnits="userSpaceOnUse">
<stop stop-color="#4998D3"/>
<stop offset="0.01" stop-color="#4A99D3"/>
<stop offset="0.26" stop-color="#42BAEB"/>
<stop offset="0.51" stop-color="#41C7F2"/>
<stop offset="0.76" stop-color="#56C9E9"/>
<stop offset="1" stop-color="#5BCAE8"/>
</linearGradient>
<linearGradient id="paint1_linear_134_1077" x1="20.7122" y1="12.9751" x2="-0.283497" y2="12.9751" gradientUnits="userSpaceOnUse">
<stop stop-color="#FEE000"/>
<stop offset="0.41" stop-color="#FEBD11"/>
<stop offset="0.78" stop-color="#FAA51A"/>
<stop offset="1" stop-color="#F99C1C"/>
</linearGradient>
<linearGradient id="paint2_linear_134_1077" x1="12.9008" y1="14.9391" x2="-6.54121" y2="34.6826" gradientUnits="userSpaceOnUse">
<stop stop-color="#EF4049"/>
<stop offset="1" stop-color="#C31E63"/>
</linearGradient>
<linearGradient id="paint3_linear_134_1077" x1="-2.31409" y1="-3.95822" x2="6.3647" y2="4.85904" gradientUnits="userSpaceOnUse">
<stop stop-color="#32A072"/>
<stop offset="0.07" stop-color="#2DA771"/>
<stop offset="0.48" stop-color="#4BBA71"/>
<stop offset="0.8" stop-color="#5EBD6B"/>
<stop offset="1" stop-color="#66BE69"/>
</linearGradient>
</defs>
</svg>
