<svg width="28" height="28" viewBox="0 0 28 28" fill="none" xmlns="http://www.w3.org/2000/svg">
<path d="M19.6233 2.33331H8.37662C5.89162 2.33331 3.87329 4.36331 3.87329 6.83665V23.275C3.87329 25.375 5.37829 26.2616 7.22162 25.2466L12.915 22.085C13.5216 21.7466 14.5016 21.7466 15.0966 22.085L20.79 25.2466C22.6333 26.2733 24.1383 25.3866 24.1383 23.275V6.83665C24.1266 4.36331 22.1083 2.33331 19.6233 2.33331ZM17.5116 11.375C16.38 11.7833 15.19 11.9933 14 11.9933C12.81 11.9933 11.62 11.7833 10.4883 11.375C10.0333 11.2116 9.79996 10.71 9.96329 10.255C10.1383 9.79998 10.64 9.56665 11.095 9.72998C12.9733 10.4066 15.0383 10.4066 16.9166 9.72998C17.3716 9.56665 17.8733 9.79998 18.0366 10.255C18.2 10.71 17.9666 11.2116 17.5116 11.375Z" fill="#000000"/>
</svg>
