<svg width="20" height="10" viewBox="0 0 20 10" fill="none" xmlns="http://www.w3.org/2000/svg">
<path d="M0 5.0789C0.101067 5.39601 0.345492 5.45744 0.642959 5.45672C6.47618 5.45387 12.3087 5.45458 18.1419 5.45458C18.2236 5.45458 18.3053 5.45458 18.4336 5.45458C18.3498 5.54457 18.301 5.601 18.248 5.65385C17.0932 6.80589 15.9385 7.95793 14.7837 9.10997C14.7472 9.1464 14.7085 9.18211 14.6741 9.22068C14.4884 9.4278 14.4827 9.68564 14.659 9.86705C14.8325 10.0463 15.0948 10.0442 15.3063 9.86134C15.3507 9.82348 15.3916 9.78134 15.4332 9.73992C16.8746 8.30433 18.3154 6.86946 19.7561 5.43387C20.0794 5.11175 20.0808 4.8932 19.7633 4.57609C18.2996 3.11693 16.8359 1.65849 15.3715 0.200043C15.1364 -0.0335083 14.8855 -0.0635042 14.6827 0.115051C14.5128 0.265038 14.4784 0.508588 14.611 0.693571C14.6669 0.772136 14.7364 0.84213 14.8052 0.910695C15.9557 2.05774 17.1061 3.20478 18.2573 4.35111C18.3068 4.40039 18.3534 4.45181 18.4386 4.5418C18.3125 4.5418 18.2322 4.5418 18.1519 4.5418C12.3123 4.5418 6.47331 4.54252 0.63364 4.53966C0.351226 4.53966 0.123288 4.60751 0.000716804 4.8832C1.6422e-08 4.94891 0 5.01391 0 5.0789Z" fill="black"/>
</svg>
