<svg width="20" height="10" viewBox="0 0 20 10" fill="none" xmlns="http://www.w3.org/2000/svg">
<path d="M20 5.0789C19.8989 5.39601 19.6545 5.45744 19.357 5.45672C13.5238 5.45387 7.69132 5.45458 1.8581 5.45458C1.77639 5.45458 1.69467 5.45458 1.56637 5.45458C1.65023 5.54457 1.69898 5.601 1.75202 5.65385C2.90676 6.80589 4.06151 7.95793 5.21625 9.10997C5.25281 9.1464 5.29152 9.18211 5.32592 9.22068C5.51157 9.4278 5.5173 9.68564 5.34097 9.86705C5.16751 10.0463 4.90517 10.0442 4.69372 9.86134C4.64927 9.82348 4.60842 9.78134 4.56684 9.73992C3.12538 8.30433 1.68464 6.86946 0.243897 5.43387C-0.0793742 5.11175 -0.0808082 4.8932 0.236729 4.57609C1.70041 3.11693 3.16409 1.65849 4.62849 0.200043C4.86359 -0.0335079 5.11447 -0.0635043 5.31732 0.115051C5.4872 0.265038 5.5216 0.508588 5.389 0.693571C5.33309 0.772136 5.26356 0.84213 5.19475 0.910695C4.04431 2.05774 2.89386 3.20478 1.7427 4.35111C1.69324 4.40039 1.64665 4.45181 1.56135 4.5418C1.68751 4.5418 1.76779 4.5418 1.84807 4.5418C7.68774 4.5418 13.5267 4.54252 19.3664 4.53966C19.6488 4.53966 19.8767 4.60751 19.9993 4.8832C20 4.94891 20 5.01391 20 5.0789Z" fill="black"/>
</svg>
