<svg width="18" height="19" viewBox="0 0 18 19" fill="none" xmlns="http://www.w3.org/2000/svg">
<path d="M16.125 8.675V3.575C16.125 2.45 15.645 2 14.4525 2H11.4225C10.23 2 9.75 2.45 9.75 3.575V8.675C9.75 9.8 10.23 10.25 11.4225 10.25H14.4525C15.645 10.25 16.125 9.8 16.125 8.675Z" fill="#E2A874"/>
<path d="M8.25 10.325V15.425C8.25 16.55 7.77 17 6.5775 17H3.5475C2.355 17 1.875 16.55 1.875 15.425V10.325C1.875 9.2 2.355 8.75 3.5475 8.75H6.5775C7.77 8.75 8.25 9.2 8.25 10.325Z" fill="#E2A874"/>
<path d="M16.125 15.425V13.325C16.125 12.2 15.645 11.75 14.4525 11.75H11.4225C10.23 11.75 9.75 12.2 9.75 13.325V15.425C9.75 16.55 10.23 17 11.4225 17H14.4525C15.645 17 16.125 16.55 16.125 15.425Z" fill="#E2A874"/>
<path d="M8.25 5.675V3.575C8.25 2.45 7.77 2 6.5775 2H3.5475C2.355 2 1.875 2.45 1.875 3.575V5.675C1.875 6.8 2.355 7.25 3.5475 7.25H6.5775C7.77 7.25 8.25 6.8 8.25 5.675Z" fill="#E2A874"/>
</svg>
