<svg width="16" height="17" viewBox="0 0 16 17" fill="none" xmlns="http://www.w3.org/2000/svg">
<path d="M14.6466 12.72C14.6466 12.96 14.5933 13.2066 14.4799 13.4466C14.3666 13.6866 14.2199 13.9133 14.0266 14.1266C13.6999 14.4866 13.3399 14.7466 12.9333 14.9133C12.5333 15.08 12.0999 15.1666 11.6333 15.1666C10.9533 15.1666 10.2266 15.0066 9.45992 14.68C8.69325 14.3533 7.92659 13.9133 7.16659 13.36C6.39992 12.8 5.67325 12.18 4.97992 11.4933C4.29325 10.8 3.67325 10.0733 3.11992 9.31331C2.57325 8.55331 2.13325 7.79331 1.81325 7.03998C1.49325 6.27998 1.33325 5.55331 1.33325 4.85998C1.33325 4.40665 1.41325 3.97331 1.57325 3.57331C1.73325 3.16665 1.98659 2.79331 2.33992 2.45998C2.76659 2.03998 3.23325 1.83331 3.72659 1.83331C3.91325 1.83331 4.09992 1.87331 4.26659 1.95331C4.43992 2.03331 4.59325 2.15331 4.71325 2.32665L6.25992 4.50665C6.37992 4.67331 6.46659 4.82665 6.52659 4.97331C6.58659 5.11331 6.61992 5.25331 6.61992 5.37998C6.61992 5.53998 6.57325 5.69998 6.47992 5.85331C6.39325 6.00665 6.26659 6.16665 6.10659 6.32665L5.59992 6.85331C5.52659 6.92665 5.49325 7.01331 5.49325 7.11998C5.49325 7.17331 5.49992 7.21998 5.51325 7.27331C5.53325 7.32665 5.55325 7.36665 5.56659 7.40665C5.68659 7.62665 5.89325 7.91331 6.18659 8.25998C6.48659 8.60665 6.80659 8.95998 7.15325 9.31331C7.51325 9.66665 7.85992 9.99331 8.21325 10.2933C8.55992 10.5866 8.84659 10.7866 9.07325 10.9066C9.10659 10.92 9.14659 10.94 9.19325 10.96C9.24659 10.98 9.29992 10.9866 9.35992 10.9866C9.47325 10.9866 9.55992 10.9466 9.63325 10.8733L10.1399 10.3733C10.3066 10.2066 10.4666 10.08 10.6199 9.99998C10.7733 9.90665 10.9266 9.85998 11.0933 9.85998C11.2199 9.85998 11.3533 9.88665 11.4999 9.94665C11.6466 10.0066 11.7999 10.0933 11.9666 10.2066L14.1733 11.7733C14.3466 11.8933 14.4666 12.0333 14.5399 12.2C14.6066 12.3666 14.6466 12.5333 14.6466 12.72Z" stroke="#151515" stroke-width="1.5" stroke-miterlimit="10"/>
</svg>
