<svg width="25" height="25" viewBox="0 0 25 25" fill="none" xmlns="http://www.w3.org/2000/svg">
<path d="M17.3203 2.5H7.68031C5.55031 2.5 3.82031 4.24 3.82031 6.36V20.45C3.82031 22.25 5.11031 23.01 6.69031 22.14L11.5703 19.43C12.0903 19.14 12.9303 19.14 13.4403 19.43L18.3203 22.14C19.9003 23.02 21.1903 22.26 21.1903 20.45V6.36C21.1803 4.24 19.4503 2.5 17.3203 2.5Z" stroke="#151515" stroke-width="2" stroke-linecap="round" stroke-linejoin="round"/>
<path d="M17.3203 2.5H7.68031C5.55031 2.5 3.82031 4.24 3.82031 6.36V20.45C3.82031 22.25 5.11031 23.01 6.69031 22.14L11.5703 19.43C12.0903 19.14 12.9303 19.14 13.4403 19.43L18.3203 22.14C19.9003 23.02 21.1903 22.26 21.1903 20.45V6.36C21.1803 4.24 19.4503 2.5 17.3203 2.5Z" stroke="#151515" stroke-width="2" stroke-linecap="round" stroke-linejoin="round"/>
</svg>
