<svg width="16" height="16" viewBox="0 0 16 16" fill="none" xmlns="http://www.w3.org/2000/svg">
<path d="M11.2134 1.33337H4.78671C3.36671 1.33337 2.21338 2.49337 2.21338 3.90671V13.3C2.21338 14.5 3.07338 15.0067 4.12671 14.4267L7.38005 12.62C7.72671 12.4267 8.28671 12.4267 8.62671 12.62L11.88 14.4267C12.9334 15.0134 13.7934 14.5067 13.7934 13.3V3.90671C13.7867 2.49337 12.6334 1.33337 11.2134 1.33337Z" stroke="#151515" stroke-width="1.5" stroke-linecap="round" stroke-linejoin="round"/>
<path d="M11.2134 1.33337H4.78671C3.36671 1.33337 2.21338 2.49337 2.21338 3.90671V13.3C2.21338 14.5 3.07338 15.0067 4.12671 14.4267L7.38005 12.62C7.72671 12.4267 8.28671 12.4267 8.62671 12.62L11.88 14.4267C12.9334 15.0134 13.7934 14.5067 13.7934 13.3V3.90671C13.7867 2.49337 12.6334 1.33337 11.2134 1.33337Z" stroke="#151515" stroke-width="1.5" stroke-linecap="round" stroke-linejoin="round"/>
</svg>
