<svg width="16" height="17" viewBox="0 0 16 17" fill="none" xmlns="http://www.w3.org/2000/svg">
<path d="M7.99992 15.1666C11.6818 15.1666 14.6666 12.1819 14.6666 8.49998C14.6666 4.81808 11.6818 1.83331 7.99992 1.83331C4.31802 1.83331 1.33325 4.81808 1.33325 8.49998C1.33325 12.1819 4.31802 15.1666 7.99992 15.1666Z" stroke="#151515" stroke-width="1.2" stroke-linecap="round" stroke-linejoin="round"/>
<path d="M5.33324 2.5H5.9999C4.6999 6.39333 4.6999 10.6067 5.9999 14.5H5.33324" stroke="#151515" stroke-width="1.2" stroke-linecap="round" stroke-linejoin="round"/>
<path d="M10 2.5C11.3 6.39333 11.3 10.6067 10 14.5" stroke="#151515" stroke-width="1.2" stroke-linecap="round" stroke-linejoin="round"/>
<path d="M2 11.1667V10.5C5.89333 11.8 10.1067 11.8 14 10.5V11.1667" stroke="#151515" stroke-width="1.2" stroke-linecap="round" stroke-linejoin="round"/>
<path d="M2 6.50002C5.89333 5.20002 10.1067 5.20002 14 6.50002" stroke="#151515" stroke-width="1.2" stroke-linecap="round" stroke-linejoin="round"/>
</svg>
