<svg width="40" height="40" viewBox="0 0 40 40" fill="none" xmlns="http://www.w3.org/2000/svg">
<rect width="40" height="40" transform="matrix(-4.37114e-08 1 1 4.37114e-08 0 0)" fill="#ED2F59"/>
<path d="M17.545 19.8839L22.8472 14.544L22.8474 14.5439C22.8759 14.5151 22.9117 14.5 22.9533 14.5C22.995 14.5 23.0308 14.5151 23.0593 14.5439L23.0595 14.544L23.4497 14.937C23.5106 14.9984 23.5102 15.1002 23.45 15.1609L23.4499 15.161L18.9974 19.6452L18.6476 19.9975L18.9974 20.3498L23.4547 24.8389L17.545 19.8839ZM17.545 19.8839C17.5165 19.9127 17.4999 19.9506 17.5 19.9967L17.5 19.9989C17.4999 20.044 17.5162 20.0821 17.545 20.1112C17.5451 20.1113 17.5451 20.1113 17.5451 20.1113L22.8522 25.456L22.8523 25.4561C22.8808 25.4849 22.9166 25.5 22.9583 25.5C22.9998 25.5 23.0356 25.4849 23.0644 25.456L23.0644 25.4559L23.4546 25.0632C23.4546 25.0632 23.4546 25.0632 23.4547 25.0631C23.4838 25.0337 23.5 24.9958 23.5 24.9508C23.5 24.9062 23.4838 24.8683 23.4548 24.839L17.545 19.8839ZM17.1901 20.4634C17.0671 20.3394 16.9996 20.1738 17 19.9978C16.9996 19.8211 17.0671 19.6557 17.1901 19.5318L17.1901 20.4634Z" stroke="white"/>
</svg>
