<svg width="26" height="22" viewBox="0 0 26 22" fill="none" xmlns="http://www.w3.org/2000/svg">
<path d="M25.3969 10.9021L25.3921 10.9402V10.9785C25.3921 11.3836 25.0218 11.7578 24.5475 11.7578H23.103H22.5003L22.503 12.3606L22.5346 19.2371C22.5346 19.2375 22.5346 19.2378 22.5346 19.2381C22.5346 19.3272 22.528 19.4139 22.5161 19.5156L22.5121 19.5503V19.5852V20.2812C22.5121 20.872 22.0009 21.4 21.3064 21.4H20.6432C20.6411 21.3995 20.6388 21.399 20.6366 21.3985C20.5977 21.3901 20.5229 21.3765 20.43 21.3834C20.3471 21.3775 20.2798 21.3867 20.2399 21.3934C20.2265 21.3957 20.2143 21.3981 20.2049 21.4H17.6952C17.0007 21.4 16.4895 20.872 16.4895 20.2812V16.5C16.4895 15.3805 15.5472 14.525 14.445 14.525H11.556C10.4539 14.525 9.51153 15.3805 9.51153 16.5V20.2812C9.51153 20.872 9.00037 21.4 8.3059 21.4H5.78253C5.73702 21.4 5.68831 21.3971 5.6174 21.3926L5.57465 21.3899L5.53195 21.3933C5.47376 21.3979 5.44332 21.4 5.41689 21.4H4.69464C4.00053 21.4 3.48901 20.8719 3.48901 20.2812V15.4688C3.48901 15.4426 3.48997 15.4137 3.49161 15.3904L3.49307 15.3694V15.3484V12.3578V11.7578H2.89307H1.44676C0.937649 11.7578 0.6 11.3946 0.6 10.9785C0.6 10.76 0.666003 10.5772 0.852166 10.3948L12.4086 0.806191L12.4246 0.792939L12.4396 0.778615C12.5885 0.636596 12.7577 0.6 13.0186 0.6C13.2377 0.6 13.453 0.66126 13.595 0.769037L25.1104 10.4074L25.1115 10.4083C25.3799 10.6318 25.4113 10.7904 25.3969 10.9021Z" stroke="#2E2124" stroke-width="1.2"/>
</svg>
