<svg width="22" height="22" viewBox="0 0 22 22" fill="none" xmlns="http://www.w3.org/2000/svg">
<path d="M3.18742 0.774748C4.18072 0.541751 5.21446 0.541751 6.20777 0.774748C7.4049 1.05556 8.33963 1.99029 8.62044 3.18742C8.85343 4.18072 8.85343 5.21447 8.62044 6.20777C8.33963 7.4049 7.4049 8.33963 6.20777 8.62044C5.21446 8.85343 4.18072 8.85343 3.18742 8.62044C1.99029 8.33963 1.05556 7.4049 0.774748 6.20777C0.541751 5.21447 0.541751 4.18072 0.774748 3.18742C1.05556 1.99029 1.99029 1.05556 3.18742 0.774748ZM3.18742 13.3796C4.18072 13.1466 5.21446 13.1466 6.20777 13.3796C7.4049 13.6604 8.33963 14.5951 8.62044 15.7922C8.85343 16.7855 8.85343 17.8193 8.62044 18.8126C8.33963 20.0097 7.4049 20.9444 6.20777 21.2253C5.21446 21.4583 4.18072 21.4582 3.18742 21.2253C1.99029 20.9444 1.05556 20.0097 0.774748 18.8126C0.541751 17.8193 0.541751 16.7855 0.774748 15.7922C1.05556 14.5951 1.99029 13.6604 3.18742 13.3796ZM15.7922 0.774748C16.7855 0.541751 17.8193 0.541751 18.8126 0.774748C20.0097 1.05556 20.9444 1.99029 21.2253 3.18742C21.4582 4.18072 21.4582 5.21447 21.2253 6.20777C20.9444 7.4049 20.0097 8.33963 18.8126 8.62044C17.8193 8.85343 16.7855 8.85343 15.7922 8.62044C14.5951 8.33963 13.6604 7.4049 13.3796 6.20777C13.1466 5.21447 13.1466 4.18072 13.3796 3.18742C13.6604 1.99029 14.5951 1.05556 15.7922 0.774748ZM15.7922 13.3796C16.7855 13.1466 17.8193 13.1466 18.8126 13.3796C20.0097 13.6604 20.9444 14.5951 21.2253 15.7922C21.4582 16.7855 21.4582 17.8193 21.2253 18.8126C20.9444 20.0097 20.0097 20.9444 18.8126 21.2253C17.8193 21.4583 16.7855 21.4582 15.7922 21.2253C14.5951 20.9444 13.6604 20.0097 13.3796 18.8126C13.1466 17.8193 13.1466 16.7855 13.3796 15.7922C13.6604 14.5951 14.5951 13.6604 15.7922 13.3796Z" stroke="#2E2124" stroke-width="1.2"/>
</svg>
