<svg width="23" height="22" viewBox="0 0 23 22" fill="none" xmlns="http://www.w3.org/2000/svg">
<path d="M19.6317 3.22182C17.4597 1.14421 14.5717 0 11.5 0C8.42812 0 5.54031 1.14421 3.36826 3.22182C1.19622 5.29942 0 8.06168 0 11C0 13.9382 1.19622 16.7006 3.36826 18.7782C5.54031 20.8558 8.42812 22 11.5 22C14.5717 22 17.4597 20.8558 19.6317 18.7782C21.8038 16.7006 23 13.9382 23 11C23 8.06168 21.8038 5.29942 19.6317 3.22182ZM5.76527 19.0088C6.24625 16.3598 8.64606 14.4059 11.5 14.4059C14.3541 14.4059 16.7538 16.3598 17.2347 19.0088C15.6019 20.0818 13.6264 20.7109 11.5 20.7109C9.37358 20.7109 7.39807 20.0818 5.76527 19.0088ZM7.84343 9.61929C7.84343 7.69057 9.48378 6.1217 11.5 6.1217C13.5162 6.1217 15.1566 7.69073 15.1566 9.61929C15.1566 11.5479 13.5162 13.1169 11.5 13.1169C9.48378 13.1169 7.84343 11.5479 7.84343 9.61929ZM18.402 18.1147C18.0393 16.8815 17.319 15.7626 16.3093 14.8887C15.6898 14.3524 14.9848 13.9293 14.2267 13.631C15.5968 12.7762 16.5044 11.2973 16.5044 9.61929C16.5044 6.9799 14.2594 4.83264 11.5 4.83264C8.74064 4.83264 6.49577 6.9799 6.49577 9.61929C6.49577 11.2973 7.40334 12.7762 8.77328 13.631C8.0154 13.9293 7.31016 14.3522 6.69073 14.8885C5.68121 15.7625 4.96071 16.8813 4.598 18.1145C2.6002 16.3399 1.34766 13.8074 1.34766 11C1.34766 5.64536 5.90196 1.28906 11.5 1.28906C17.098 1.28906 21.6523 5.64536 21.6523 11C21.6523 13.8076 20.3998 16.34 18.402 18.1147Z" fill="#2E2124"/>
</svg>
