<svg width="40" height="40" viewBox="0 0 40 40" fill="none" xmlns="http://www.w3.org/2000/svg">
<rect x="40" width="40" height="40" transform="rotate(90 40 0)" fill="#ED2F59"/>
<path d="M22.455 19.8839L17.1528 14.544L17.1526 14.5439C17.1241 14.5151 17.0883 14.5 17.0467 14.5C17.005 14.5 16.9692 14.5151 16.9407 14.5439L16.9405 14.544L16.5503 14.937C16.4894 14.9984 16.4898 15.1002 16.55 15.1609L16.5501 15.161L21.0026 19.6452L21.3524 19.9975L21.0026 20.3498L16.5453 24.8389L22.455 19.8839ZM22.455 19.8839C22.4835 19.9127 22.5001 19.9506 22.5 19.9967L22.5 19.9989C22.5001 20.044 22.4838 20.0821 22.455 20.1112C22.4549 20.1113 22.4549 20.1113 22.4549 20.1113L17.1478 25.456L17.1477 25.4561C17.1192 25.4849 17.0834 25.5 17.0417 25.5C17.0002 25.5 16.9644 25.4849 16.9356 25.456L16.9356 25.4559L16.5454 25.0632C16.5454 25.0632 16.5454 25.0632 16.5453 25.0631C16.5162 25.0337 16.5 24.9958 16.5 24.9508C16.5 24.9062 16.5162 24.8683 16.5452 24.839L22.455 19.8839ZM22.8099 20.4634C22.9329 20.3394 23.0004 20.1738 23 19.9978C23.0004 19.8211 22.9329 19.6557 22.8099 19.5318L22.8099 20.4634Z" stroke="white"/>
</svg>
