<svg width="17" height="16" viewBox="0 0 17 16" fill="none" xmlns="http://www.w3.org/2000/svg">
<path d="M11.8689 0H4.53101C2.14282 0 0.199951 1.94287 0.199951 4.33105V11.6691C0.199951 14.0571 2.14282 16 4.53101 16H11.869C14.2571 16 16.2 14.0571 16.2 11.6691V4.33105C16.2 1.94287 14.2571 0 11.8689 0ZM8.19995 12.3749C5.7876 12.3749 3.82507 10.4124 3.82507 8C3.82507 5.58765 5.7876 3.62512 8.19995 3.62512C10.6123 3.62512 12.5748 5.58765 12.5748 8C12.5748 10.4124 10.6123 12.3749 8.19995 12.3749ZM12.6794 4.65686C11.9666 4.65686 11.3867 4.07703 11.3867 3.36414C11.3867 2.65125 11.9666 2.07129 12.6794 2.07129C13.3923 2.07129 13.9723 2.65125 13.9723 3.36414C13.9723 4.07703 13.3923 4.65686 12.6794 4.65686Z" fill="black"/>
<path d="M8.19995 4.56311C6.30493 4.56311 4.76306 6.10486 4.76306 8C4.76306 9.89502 6.30493 11.4369 8.19995 11.4369C10.0951 11.4369 11.6368 9.89502 11.6368 8C11.6368 6.10486 10.0951 4.56311 8.19995 4.56311Z" fill="black"/>
<path d="M12.6794 3.0094C12.4839 3.0094 12.3247 3.16858 12.3247 3.36414C12.3247 3.55969 12.4839 3.71887 12.6794 3.71887C12.8751 3.71887 13.0343 3.55981 13.0343 3.36414C13.0343 3.16846 12.8751 3.0094 12.6794 3.0094Z" fill="black"/>
</svg>
