<svg width="16" height="17" viewBox="0 0 16 17" fill="none" xmlns="http://www.w3.org/2000/svg">
<path d="M1 6L6.81824 8.49353C7.57289 8.81695 8.42711 8.81695 9.18176 8.49353L15 6" stroke="#151515" stroke-width="1.5"/>
<path d="M8 16L8 9" stroke="#151515" stroke-width="1.5"/>
<path d="M12 1L10.6833 3.63344C9.57771 5.84459 6.42229 5.84458 5.31672 3.63344L4 1" stroke="#151515" stroke-width="1.5" stroke-linecap="round"/>
<path d="M13.0633 3.26536C12.775 3.11304 12.4186 3.19558 12.2265 3.45915C11.9912 3.78221 12.0969 4.23886 12.4503 4.42558L12.6995 4.55721C13.5592 5.01141 13.8488 5.17306 14.0544 5.38202C14.2519 5.58279 14.4012 5.81932 14.4924 6.07626C14.5873 6.34368 14.5955 6.65405 14.5955 7.56243V10.5248C14.5955 11.4332 14.5873 11.7436 14.4924 12.011C14.4012 12.268 14.2519 12.5045 14.0544 12.7053C13.8488 12.9142 13.5592 13.0759 12.6995 13.5301L9.89601 15.0113C9.03635 15.4655 8.73855 15.6142 8.438 15.6726C8.14923 15.7288 7.85078 15.7288 7.562 15.6726C7.26146 15.6142 6.96365 15.4655 6.104 15.0113L3.30051 13.5301C2.44085 13.0759 2.15121 12.9142 1.94561 12.7053C1.74807 12.5045 1.59884 12.268 1.50761 12.011C1.41266 11.7436 1.4045 11.4332 1.4045 10.5248V7.56244C1.4045 6.65405 1.41266 6.34368 1.50761 6.07626C1.59884 5.81932 1.74807 5.58279 1.94561 5.38202C2.15121 5.17306 2.44085 5.01141 3.30051 4.55722L3.54966 4.42558C3.90307 4.23886 4.00882 3.78222 3.77346 3.45915C3.58145 3.19559 3.22501 3.11304 2.93669 3.26537L2.50135 3.49536C1.77636 3.87806 1.27527 4.14257 0.901907 4.52203C0.572664 4.85665 0.323954 5.25086 0.171903 5.6791C-0.000521635 6.16473 -0.000297176 6.69411 2.76247e-05 7.46002V10.6273C-0.000297176 11.3932 -0.000521635 11.9226 0.171903 12.4082C0.323953 12.8364 0.572663 13.2306 0.901905 13.5653C1.27526 13.9447 1.77636 14.2092 2.50135 14.5919L5.49868 16.1755C6.22334 16.5588 6.72421 16.8236 7.27 16.9298C7.75129 17.0234 8.24871 17.0234 8.73 16.9298C9.27579 16.8236 9.77666 16.5588 10.5013 16.1755L13.4987 14.5919C14.2236 14.2092 14.7247 13.9447 15.0981 13.5653C15.4273 13.2306 15.676 12.8364 15.8281 12.4082C16.0005 11.9226 16.0003 11.3932 16 10.6273V7.46001C16.0003 6.69411 16.0005 6.16472 15.8281 5.6791C15.6761 5.25086 15.4273 4.85665 15.0981 4.52203C14.7247 4.14257 14.2236 3.87805 13.4987 3.49536L13.0633 3.26536Z" fill="#151515"/>
</svg>
