<svg width="15" height="17" viewBox="0 0 15 17" fill="none" xmlns="http://www.w3.org/2000/svg">
<path d="M8.875 3.93819C8.95235 3.89354 9.04765 3.89354 9.125 3.93819L10.7231 4.86084C10.8004 4.9055 10.8481 4.98803 10.8481 5.07735V6.92265C10.8481 7.01197 10.8004 7.0945 10.7231 7.13916L9.125 8.06181L9.5 8.71132L9.125 8.06181C9.04765 8.10646 8.95235 8.10646 8.875 8.06181L8.5 8.71132L8.875 8.06181L7.27692 7.13916C7.19957 7.0945 7.15192 7.01197 7.15192 6.92265V5.07735C7.15192 4.98803 7.19957 4.9055 7.27692 4.86084L8.875 3.93819Z" stroke="#151515" stroke-width="1.5"/>
<path d="M9.2 16H5.8C4.11984 16 3.27976 16 2.63803 15.673C2.07354 15.3854 1.6146 14.9265 1.32698 14.362C1 13.7202 1 12.8802 1 11.2V8.89474V5.8C1 4.11984 1 3.27976 1.32698 2.63803C1.6146 2.07354 2.07354 1.6146 2.63803 1.32698C3.27976 1 4.11984 1 5.8 1H9.2C10.8802 1 11.7202 1 12.362 1.32698C12.9265 1.6146 13.3854 2.07354 13.673 2.63803C14 3.27976 14 4.11984 14 5.8V11V11.2C14 12.8802 14 13.7202 13.673 14.362C13.3854 14.9265 12.9265 15.3854 12.362 15.673C11.7202 16 10.8802 16 9.2 16Z" stroke="#151515" stroke-width="1.5" stroke-linecap="round" stroke-linejoin="round"/>
<path d="M14 11H3.5C2.11929 11 1 12.1193 1 13.5V13.5V13V13C1 14.6569 2.34315 16 4 16H11.5C12.8807 16 14 14.8807 14 13.5V13.5V11Z" stroke="#151515" stroke-width="1.5" stroke-linecap="round" stroke-linejoin="round"/>
<path d="M4 2L4 11" stroke="#151515" stroke-width="1.5" stroke-linecap="round" stroke-linejoin="round"/>
</svg>
