<svg width="14" height="16" viewBox="0 0 14 16" fill="none" xmlns="http://www.w3.org/2000/svg">
<path d="M13.25 10.2857C13.25 12.8923 10.6012 15.25 7 15.25C3.39876 15.25 0.75 12.8923 0.75 10.2857C0.75 8.88283 1.47311 6.44245 2.69849 4.3366C3.30502 3.29426 4.00937 2.37899 4.76334 1.73282C5.51865 1.0855 6.27248 0.75 7 0.75C7.72752 0.75 8.48135 1.0855 9.23666 1.73282C9.99063 2.37899 10.695 3.29426 11.3015 4.3366C12.5269 6.44245 13.25 8.88283 13.25 10.2857Z" stroke="#151515" stroke-width="1.5"/>
<path d="M7 15L7 7" stroke="#151515" stroke-width="1.5" stroke-linecap="round"/>
<path d="M9.24103 10.9999L7.24103 12.4999" stroke="#151515" stroke-width="1.5" stroke-linecap="round"/>
<path d="M5.00003 9.46563L6.96656 11.0092" stroke="#151515" stroke-width="1.5" stroke-linecap="round"/>
</svg>
