<svg width="15" height="18" viewBox="0 0 15 18" fill="none" xmlns="http://www.w3.org/2000/svg">
<path d="M4.25 6C4.25 6.9665 3.4665 7.75 2.5 7.75C1.5335 7.75 0.75 6.9665 0.75 6C0.75 5.0335 1.5335 4.25 2.5 4.25C3.4665 4.25 4.25 5.0335 4.25 6Z" stroke="#151515" stroke-width="1.5"/>
<path d="M14.25 6C14.25 6.9665 13.4665 7.75 12.5 7.75C11.5335 7.75 10.75 6.9665 10.75 6C10.75 5.0335 11.5335 4.25 12.5 4.25C13.4665 4.25 14.25 5.0335 14.25 6Z" stroke="#151515" stroke-width="1.5"/>
<circle cx="7.5" cy="2.5" r="1.75" stroke="#151515" stroke-width="1.5"/>
<path d="M5.25 12C5.25 12.9665 4.4665 13.75 3.5 13.75C2.5335 13.75 1.75 12.9665 1.75 12C1.75 11.0335 2.5335 10.25 3.5 10.25C4.4665 10.25 5.25 11.0335 5.25 12Z" stroke="#151515" stroke-width="1.5"/>
<path d="M13.25 12C13.25 12.9665 12.4665 13.75 11.5 13.75C10.5335 13.75 9.75 12.9665 9.75 12C9.75 11.0335 10.5335 10.25 11.5 10.25C12.4665 10.25 13.25 11.0335 13.25 12Z" stroke="#151515" stroke-width="1.5"/>
<path fill-rule="evenodd" clip-rule="evenodd" d="M9 15.4565C9 15.2596 8.9612 15.0645 8.88582 14.8825C8.81043 14.7005 8.69994 14.5352 8.56066 14.3959C8.42137 14.2566 8.25601 14.1461 8.07402 14.0707C7.89203 13.9953 7.69698 13.9565 7.5 13.9565C7.30301 13.9565 7.10796 13.9953 6.92597 14.0707C6.74398 14.1461 6.57862 14.2566 6.43934 14.3959C6.30005 14.5352 6.18956 14.7005 6.11418 14.8825C6.03879 15.0645 6 15.2596 6 15.4565H6V17.4565H9V15.4565H9Z" fill="#151515"/>
</svg>
