<svg width="13" height="17" viewBox="0 0 13 17" fill="none" xmlns="http://www.w3.org/2000/svg">
<path d="M12.0618 10.375C12.1065 10.4524 12.1065 10.5477 12.0618 10.625L9.38916 15.2542L10.0387 15.6292L9.38916 15.2542C9.3445 15.3315 9.26197 15.3792 9.17265 15.3792L3.82735 15.3792C3.73803 15.3792 3.6555 15.3315 3.61084 15.2542L0.938195 10.625C0.893537 10.5476 0.893537 10.4524 0.938195 10.375L3.61084 5.74583C3.6555 5.66848 3.73803 5.62083 3.82735 5.62083L9.17265 5.62083C9.26197 5.62083 9.3445 5.66848 9.38916 5.74583L12.0618 10.375Z" stroke="#151515" stroke-width="1.5"/>
<path d="M8.06181 10.375C8.10646 10.4524 8.10646 10.5476 8.06181 10.625L7.38916 11.7901C7.3445 11.8674 7.26197 11.9151 7.17265 11.9151L5.82735 11.9151C5.73803 11.9151 5.6555 11.8674 5.61084 11.7901L4.93819 10.625C4.89354 10.5476 4.89354 10.4524 4.93819 10.375L5.61084 9.20994C5.6555 9.13259 5.73803 9.08494 5.82735 9.08494L7.17265 9.08494C7.26197 9.08494 7.3445 9.13259 7.38916 9.20994L8.06181 10.375Z" stroke="#151515" stroke-width="1.5"/>
<path d="M6.5 5V1" stroke="#151515" stroke-width="1.5" stroke-linecap="round"/>
<path d="M4.5 1L8.5 1" stroke="#151515" stroke-width="1.5" stroke-linecap="round"/>
</svg>
