<svg width="15" height="17" viewBox="0 0 15 17" fill="none" xmlns="http://www.w3.org/2000/svg">
<path d="M8.03797 4.5C9.09391 3.95477 9.95477 3.09391 10.5 2.03797C11.0452 3.09391 11.9061 3.95477 12.962 4.5C11.9061 5.04523 11.0452 5.90609 10.5 6.96203C9.95477 5.90609 9.09391 5.04523 8.03797 4.5Z" stroke="#151515" stroke-width="1.5"/>
<path d="M8.03797 12.5C9.09391 11.9548 9.95477 11.0939 10.5 10.038C11.0452 11.0939 11.9061 11.9548 12.962 12.5C11.9061 13.0452 11.0452 13.9061 10.5 14.962C9.95477 13.9061 9.09391 13.0452 8.03797 12.5Z" stroke="#151515" stroke-width="1.5"/>
<path d="M2.03797 8.5C3.09391 7.95477 3.95477 7.09391 4.5 6.03797C5.04523 7.09391 5.90609 7.95477 6.96203 8.5C5.90609 9.04523 5.04523 9.90609 4.5 10.962C3.95477 9.90609 3.09391 9.04523 2.03797 8.5Z" stroke="#151515" stroke-width="1.5"/>
</svg>
