<svg width="20" height="16" viewBox="0 0 20 16" fill="none" xmlns="http://www.w3.org/2000/svg">
<path d="M0.339129 7.67196L4.76319 9.25236L6.47557 14.5232C6.58514 14.8608 7.01644 14.9856 7.30271 14.7616L9.76876 12.8374C10.0273 12.6358 10.3954 12.6258 10.6656 12.8134L15.1135 15.9042C15.4197 16.1173 15.8535 15.9567 15.9303 15.6025L19.1887 0.601499C19.2725 0.214607 18.8753 -0.108149 18.4905 0.0343316L0.333945 6.73823C-0.114119 6.90363 -0.110215 7.51079 0.339129 7.67196ZM6.1996 8.41107L14.8459 3.31415C15.0013 3.22282 15.1612 3.42392 15.0277 3.54239L7.89202 9.89095C7.6412 10.1144 7.47941 10.4134 7.43359 10.7381L7.19052 12.4621C7.15832 12.6924 6.82047 12.7152 6.7541 12.4925L5.81925 9.34847C5.71218 8.98988 5.86821 8.60684 6.1996 8.41107Z" fill="black"/>
</svg>
