<svg width="16" height="15" viewBox="0 0 16 15" fill="none" xmlns="http://www.w3.org/2000/svg">
<path d="M8 0C3.8675 0 0.5 3.3675 0.5 7.5C0.5 11.6325 3.8675 15 8 15C12.1325 15 15.5 11.6325 15.5 7.5C15.5 3.3675 12.1325 0 8 0ZM11.2625 10.1775C11.1575 10.3575 10.97 10.455 10.775 10.455C10.6775 10.455 10.58 10.4325 10.49 10.3725L8.165 8.985C7.5875 8.64 7.16 7.8825 7.16 7.215V4.14C7.16 3.8325 7.415 3.5775 7.7225 3.5775C8.03 3.5775 8.285 3.8325 8.285 4.14V7.215C8.285 7.485 8.51 7.8825 8.7425 8.0175L11.0675 9.405C11.3375 9.5625 11.4275 9.9075 11.2625 10.1775Z" fill="#D2D2D2"/>
</svg>
